<svg xmlns="http://www.w3.org/2000/svg" xmlns:xlink="http://www.w3.org/1999/xlink"><defs><clipPath id="clip0_248_2060"><rect width="26" height="26" fill="white"/></clipPath><clipPath id="clip0_248_2488"><rect width="15" height="14" fill="white"/></clipPath><clipPath id="clip1_248_2488"><rect width="15" height="14" fill="white" transform="translate(16)"/></clipPath><clipPath id="clip2_248_2488"><rect width="15" height="14" fill="white" transform="translate(32)"/></clipPath><clipPath id="clip3_248_2488"><rect width="15" height="14" fill="white" transform="translate(48)"/></clipPath><clipPath id="clip4_248_2488"><rect width="15" height="14" fill="white" transform="translate(64)"/></clipPath><clipPath id="clip0_248_2533"><rect width="15" height="14" fill="white"/></clipPath><clipPath id="clip1_248_2533"><rect width="15" height="14" fill="white" transform="translate(16)"/></clipPath><clipPath id="clip2_248_2533"><rect width="15" height="14" fill="white" transform="translate(32)"/></clipPath><clipPath id="clip3_248_2533"><rect width="15" height="14" fill="white" transform="translate(48)"/></clipPath><clipPath id="clip4_248_2533"><rect width="15" height="14" fill="white" transform="translate(64)"/></clipPath></defs><symbol id="audio-poster" viewBox="0 0 340 220"><g fill="none"><rect x="1" y="1" width="338" height="218" fill="#F5F6FA" fill-opacity="0.9"/><path opacity="0.4" d="M41 98L300 98" stroke="#1C3374" stroke-width="2" stroke-linecap="square"/><line x1="41" y1="98" x2="187" y2="98" stroke="#0B1230" stroke-opacity="0.7" stroke-width="2" stroke-linecap="square"/><circle cx="187" cy="98" r="4" fill="#1C3374"/><path d="M45.3 116.36V117H40.39V116.49L43.3 113.64C43.6667 113.28 43.9133 112.97 44.04 112.71C44.1733 112.443 44.24 112.177 44.24 111.91C44.24 111.497 44.0967 111.177 43.81 110.95C43.53 110.717 43.1267 110.6 42.6 110.6C41.78 110.6 41.1433 110.86 40.69 111.38L40.18 110.94C40.4533 110.62 40.8 110.373 41.22 110.2C41.6467 110.027 42.1267 109.94 42.66 109.94C43.3733 109.94 43.9367 110.11 44.35 110.45C44.77 110.783 44.98 111.243 44.98 111.83C44.98 112.19 44.9 112.537 44.74 112.87C44.58 113.203 44.2767 113.587 43.83 114.02L41.45 116.36H45.3ZM46.7436 112.79C46.5969 112.79 46.4703 112.737 46.3636 112.63C46.2636 112.523 46.2136 112.393 46.2136 112.24C46.2136 112.087 46.2636 111.96 46.3636 111.86C46.4703 111.753 46.5969 111.7 46.7436 111.7C46.8903 111.7 47.0169 111.753 47.1236 111.86C47.2303 111.96 47.2836 112.087 47.2836 112.24C47.2836 112.393 47.2303 112.523 47.1236 112.63C47.0169 112.737 46.8903 112.79 46.7436 112.79ZM46.7436 117.05C46.5969 117.05 46.4703 116.997 46.3636 116.89C46.2636 116.783 46.2136 116.653 46.2136 116.5C46.2136 116.347 46.2636 116.22 46.3636 116.12C46.4703 116.013 46.5969 115.96 46.7436 115.96C46.8903 115.96 47.0169 116.013 47.1236 116.12C47.2303 116.22 47.2836 116.347 47.2836 116.5C47.2836 116.653 47.2303 116.783 47.1236 116.89C47.0169 116.997 46.8903 117.05 46.7436 117.05ZM50.7027 113C51.4361 113.04 51.9927 113.24 52.3727 113.6C52.7594 113.953 52.9527 114.417 52.9527 114.99C52.9527 115.39 52.8561 115.747 52.6627 116.06C52.4694 116.367 52.1827 116.61 51.8027 116.79C51.4227 116.97 50.9594 117.06 50.4127 117.06C49.9061 117.06 49.4261 116.98 48.9727 116.82C48.5261 116.653 48.1661 116.433 47.8927 116.16L48.2427 115.59C48.4761 115.83 48.7861 116.027 49.1727 116.18C49.5594 116.327 49.9727 116.4 50.4127 116.4C50.9861 116.4 51.4294 116.277 51.7427 116.03C52.0561 115.777 52.2127 115.43 52.2127 114.99C52.2127 114.557 52.0561 114.217 51.7427 113.97C51.4294 113.723 50.9561 113.6 50.3227 113.6H49.8227V113.07L51.7627 110.64H48.1827V110H52.6827V110.51L50.7027 113ZM56.7573 117.06C56.2173 117.06 55.7339 116.917 55.3073 116.63C54.8873 116.343 54.5573 115.933 54.3173 115.4C54.0839 114.86 53.9673 114.227 53.9673 113.5C53.9673 112.773 54.0839 112.143 54.3173 111.61C54.5573 111.07 54.8873 110.657 55.3073 110.37C55.7339 110.083 56.2173 109.94 56.7573 109.94C57.2973 109.94 57.7773 110.083 58.1973 110.37C58.6239 110.657 58.9573 111.07 59.1973 111.61C59.4373 112.143 59.5573 112.773 59.5573 113.5C59.5573 114.227 59.4373 114.86 59.1973 115.4C58.9573 115.933 58.6239 116.343 58.1973 116.63C57.7773 116.917 57.2973 117.06 56.7573 117.06ZM56.7573 116.4C57.1639 116.4 57.5206 116.287 57.8273 116.06C58.1406 115.833 58.3839 115.503 58.5573 115.07C58.7306 114.637 58.8173 114.113 58.8173 113.5C58.8173 112.887 58.7306 112.363 58.5573 111.93C58.3839 111.497 58.1406 111.167 57.8273 110.94C57.5206 110.713 57.1639 110.6 56.7573 110.6C56.3506 110.6 55.9906 110.713 55.6773 110.94C55.3706 111.167 55.1306 111.497 54.9573 111.93C54.7839 112.363 54.6973 112.887 54.6973 113.5C54.6973 114.113 54.7839 114.637 54.9573 115.07C55.1306 115.503 55.3706 115.833 55.6773 116.06C55.9906 116.287 56.3506 116.4 56.7573 116.4Z" fill="#1C3374"/><path d="M287.974 115.16H286.574V117H285.854V115.16H281.904V114.64L285.614 110H286.414L282.834 114.52H285.874V112.9H286.574V114.52H287.974V115.16ZM289.234 112.79C289.087 112.79 288.96 112.737 288.854 112.63C288.754 112.523 288.704 112.393 288.704 112.24C288.704 112.087 288.754 111.96 288.854 111.86C288.96 111.753 289.087 111.7 289.234 111.7C289.38 111.7 289.507 111.753 289.614 111.86C289.72 111.96 289.774 112.087 289.774 112.24C289.774 112.393 289.72 112.523 289.614 112.63C289.507 112.737 289.38 112.79 289.234 112.79ZM289.234 117.05C289.087 117.05 288.96 116.997 288.854 116.89C288.754 116.783 288.704 116.653 288.704 116.5C288.704 116.347 288.754 116.22 288.854 116.12C288.96 116.013 289.087 115.96 289.234 115.96C289.38 115.96 289.507 116.013 289.614 116.12C289.72 116.22 289.774 116.347 289.774 116.5C289.774 116.653 289.72 116.783 289.614 116.89C289.507 116.997 289.38 117.05 289.234 117.05ZM292.753 110V117H292.033V110.64H290.383V110H292.753ZM297.326 112.81C297.786 112.81 298.193 112.897 298.546 113.07C298.906 113.243 299.186 113.49 299.386 113.81C299.586 114.123 299.686 114.49 299.686 114.91C299.686 115.337 299.583 115.713 299.376 116.04C299.17 116.367 298.883 116.62 298.516 116.8C298.156 116.973 297.75 117.06 297.296 117.06C296.37 117.06 295.66 116.757 295.166 116.15C294.673 115.537 294.426 114.673 294.426 113.56C294.426 112.78 294.56 112.12 294.826 111.58C295.093 111.04 295.466 110.633 295.946 110.36C296.426 110.08 296.986 109.94 297.626 109.94C298.32 109.94 298.873 110.067 299.286 110.32L298.996 110.9C298.663 110.68 298.21 110.57 297.636 110.57C296.863 110.57 296.256 110.817 295.816 111.31C295.376 111.797 295.156 112.507 295.156 113.44C295.156 113.607 295.166 113.797 295.186 114.01C295.36 113.63 295.636 113.337 296.016 113.13C296.396 112.917 296.833 112.81 297.326 112.81ZM297.266 116.45C297.773 116.45 298.183 116.313 298.496 116.04C298.816 115.76 298.976 115.39 298.976 114.93C298.976 114.47 298.816 114.103 298.496 113.83C298.183 113.557 297.756 113.42 297.216 113.42C296.863 113.42 296.55 113.487 296.276 113.62C296.01 113.753 295.8 113.937 295.646 114.17C295.493 114.403 295.416 114.663 295.416 114.95C295.416 115.217 295.486 115.463 295.626 115.69C295.773 115.917 295.986 116.1 296.266 116.24C296.546 116.38 296.88 116.45 297.266 116.45Z" fill="#1C3374"/><path d="M266.323 70.7082C266.101 70.193 265.78 69.726 265.379 69.3336C264.977 68.94 264.504 68.6272 263.984 68.4122C263.445 68.1884 262.867 68.0739 262.284 68.0752C261.466 68.0752 260.667 68.2993 259.973 68.7227C259.807 68.8239 259.649 68.9352 259.5 69.0564C259.351 68.9352 259.193 68.8239 259.027 68.7227C258.333 68.2993 257.534 68.0752 256.716 68.0752C256.127 68.0752 255.555 68.1881 255.016 68.4122C254.495 68.628 254.025 68.9385 253.621 69.3336C253.22 69.7256 252.899 70.1926 252.677 70.7082C252.446 71.2444 252.328 71.8139 252.328 72.3999C252.328 72.9527 252.441 73.5288 252.665 74.1149C252.853 74.6046 253.122 75.1126 253.465 75.6256C254.01 76.4374 254.759 77.2841 255.688 78.1424C257.229 79.5651 258.755 80.548 258.819 80.5878L259.213 80.8401C259.387 80.9514 259.611 80.9514 259.786 80.8401L260.179 80.5878C260.244 80.5463 261.768 79.5651 263.31 78.1424C264.24 77.2841 264.988 76.4374 265.533 75.6256C265.877 75.1126 266.147 74.6046 266.333 74.1149C266.557 73.5288 266.67 72.9527 266.67 72.3999C266.672 71.8139 266.554 71.2444 266.323 70.7082ZM259.5 79.527C259.5 79.527 253.59 75.7401 253.59 72.3999C253.59 70.7082 254.989 69.3369 256.716 69.3369C257.929 69.3369 258.982 70.0143 259.5 71.0037C260.018 70.0143 261.071 69.3369 262.284 69.3369C264.011 69.3369 265.41 70.7082 265.41 72.3999C265.41 75.7401 259.5 79.527 259.5 79.527Z" fill="#1C3374"/><path d="M291.5 68.125V76.625M291.5 68.125L288.667 70.9583M291.5 68.125L294.334 70.9583M284.417 78.0417L284.857 79.8019C284.933 80.1084 285.11 80.3804 285.359 80.5749C285.608 80.7693 285.915 80.875 286.231 80.875H296.77C297.086 80.875 297.392 80.7693 297.641 80.5749C297.89 80.3804 298.067 80.1084 298.144 79.8019L298.584 78.0417" stroke="#1C3374" stroke-width="1.16667" stroke-linecap="round" stroke-linejoin="round"/><path d="M41.596 70.2H42.632V79.104H48.12V80H41.596V70.2ZM49.6301 72.636H50.6241V80H49.6301V72.636ZM50.1341 71.026C49.9288 71.026 49.7561 70.956 49.6161 70.816C49.4761 70.676 49.4061 70.508 49.4061 70.312C49.4061 70.1253 49.4761 69.962 49.6161 69.822C49.7561 69.682 49.9288 69.612 50.1341 69.612C50.3395 69.612 50.5121 69.682 50.6521 69.822C50.7921 69.9527 50.8621 70.1113 50.8621 70.298C50.8621 70.5033 50.7921 70.676 50.6521 70.816C50.5121 70.956 50.3395 71.026 50.1341 71.026ZM55.8259 70.382C55.3966 70.382 55.0699 70.4987 54.8459 70.732C54.6312 70.9653 54.5239 71.3107 54.5239 71.768V72.636H56.7919V73.476H54.5519V80H53.5579V73.476H52.2419V72.636H53.5579V71.726C53.5579 71.054 53.7492 70.522 54.1319 70.13C54.5239 69.738 55.0746 69.542 55.7839 69.542C56.0639 69.542 56.3346 69.584 56.5959 69.668C56.8572 69.7427 57.0766 69.8547 57.2539 70.004L56.9179 70.746C56.6286 70.5033 56.2646 70.382 55.8259 70.382ZM64.423 76.626H58.263C58.319 77.3913 58.613 78.012 59.145 78.488C59.677 78.9547 60.349 79.188 61.161 79.188C61.6183 79.188 62.0383 79.1087 62.421 78.95C62.8037 78.782 63.135 78.5393 63.415 78.222L63.975 78.866C63.6483 79.258 63.2377 79.5567 62.743 79.762C62.2577 79.9673 61.721 80.07 61.133 80.07C60.377 80.07 59.705 79.9113 59.117 79.594C58.5383 79.2673 58.0857 78.8193 57.759 78.25C57.4323 77.6807 57.269 77.0367 57.269 76.318C57.269 75.5993 57.423 74.9553 57.731 74.386C58.0483 73.8167 58.4777 73.3733 59.019 73.056C59.5697 72.7387 60.1857 72.58 60.867 72.58C61.5483 72.58 62.1597 72.7387 62.701 73.056C63.2423 73.3733 63.667 73.8167 63.975 74.386C64.283 74.946 64.437 75.59 64.437 76.318L64.423 76.626ZM60.867 73.434C60.1577 73.434 59.5603 73.6627 59.075 74.12C58.599 74.568 58.3283 75.156 58.263 75.884H63.485C63.4197 75.156 63.1443 74.568 62.659 74.12C62.183 73.6627 61.5857 73.434 60.867 73.434ZM70.3382 79.552C70.1516 79.72 69.9182 79.8507 69.6382 79.944C69.3676 80.028 69.0829 80.07 68.7842 80.07C68.0936 80.07 67.5616 79.8833 67.1882 79.51C66.8149 79.1367 66.6282 78.6093 66.6282 77.928V73.476H65.3122V72.636H66.6282V71.026H67.6222V72.636H69.8622V73.476H67.6222V77.872C67.6222 78.3107 67.7296 78.6467 67.9442 78.88C68.1682 79.104 68.4856 79.216 68.8962 79.216C69.1016 79.216 69.2976 79.1833 69.4842 79.118C69.6802 79.0527 69.8482 78.9593 69.9882 78.838L70.3382 79.552ZM74.898 80.07C74.1886 80.07 73.5493 79.9113 72.98 79.594C72.4106 79.2673 71.9626 78.8193 71.636 78.25C71.3093 77.6807 71.146 77.0367 71.146 76.318C71.146 75.5993 71.3093 74.9553 71.636 74.386C71.9626 73.8167 72.4106 73.3733 72.98 73.056C73.5493 72.7387 74.1886 72.58 74.898 72.58C75.6073 72.58 76.2466 72.7387 76.816 73.056C77.3853 73.3733 77.8286 73.8167 78.146 74.386C78.4726 74.9553 78.636 75.5993 78.636 76.318C78.636 77.0367 78.4726 77.6807 78.146 78.25C77.8286 78.8193 77.3853 79.2673 76.816 79.594C76.2466 79.9113 75.6073 80.07 74.898 80.07ZM74.898 79.188C75.4206 79.188 75.8873 79.0713 76.298 78.838C76.718 78.5953 77.0446 78.2547 77.278 77.816C77.5113 77.3773 77.628 76.878 77.628 76.318C77.628 75.758 77.5113 75.2587 77.278 74.82C77.0446 74.3813 76.718 74.0453 76.298 73.812C75.8873 73.5693 75.4206 73.448 74.898 73.448C74.3753 73.448 73.904 73.5693 73.484 73.812C73.0733 74.0453 72.7466 74.3813 72.504 74.82C72.2706 75.2587 72.154 75.758 72.154 76.318C72.154 76.878 72.2706 77.3773 72.504 77.816C72.7466 78.2547 73.0733 78.5953 73.484 78.838C73.904 79.0713 74.3753 79.188 74.898 79.188ZM87.3013 72.636V80H86.3493V78.656C86.088 79.104 85.7286 79.454 85.2713 79.706C84.814 79.9487 84.2913 80.07 83.7033 80.07C82.742 80.07 81.9813 79.804 81.4213 79.272C80.8706 78.7307 80.5953 77.942 80.5953 76.906V72.636H81.5893V76.808C81.5893 77.5827 81.7806 78.1707 82.1633 78.572C82.546 78.9733 83.092 79.174 83.8013 79.174C84.576 79.174 85.1873 78.9407 85.6353 78.474C86.0833 77.998 86.3073 77.34 86.3073 76.5V72.636H87.3013ZM91.0372 74.078C91.2706 73.5833 91.6159 73.21 92.0732 72.958C92.5399 72.706 93.1139 72.58 93.7952 72.58V73.546L93.5572 73.532C92.7826 73.532 92.1759 73.77 91.7372 74.246C91.2986 74.722 91.0792 75.3893 91.0792 76.248V80H90.0852V72.636H91.0372V74.078Z" fill="#1C3374" fill-opacity="0.48"/><path d="M52.452 54.886H43.872L42.024 59H40.33L47.37 43.6H48.976L56.016 59H54.3L52.452 54.886ZM51.858 53.566L48.162 45.294L44.466 53.566H51.858ZM68.0961 47.428V59H66.5341V48.814H60.9901L60.8361 51.674C60.7187 54.0793 60.4401 55.9273 60.0001 57.218C59.5601 58.5087 58.7754 59.154 57.6461 59.154C57.3381 59.154 56.9641 59.0953 56.5241 58.978L56.6341 57.636C56.8981 57.6947 57.0814 57.724 57.1841 57.724C57.7854 57.724 58.2401 57.4453 58.5481 56.888C58.8561 56.3307 59.0614 55.6413 59.1641 54.82C59.2667 53.9987 59.3547 52.9133 59.4281 51.564L59.6261 47.428H68.0961ZM80.6765 48.814H76.2985V59H74.7365V48.814H70.3585V47.428H80.6765V48.814ZM86.9169 47.34C88.4276 47.34 89.5862 47.7213 90.3929 48.484C91.1996 49.232 91.6029 50.3467 91.6029 51.828V59H90.1069V57.196C89.7549 57.7973 89.2342 58.2667 88.5449 58.604C87.8702 58.9413 87.0636 59.11 86.1249 59.11C84.8342 59.11 83.8076 58.802 83.0449 58.186C82.2822 57.57 81.9009 56.756 81.9009 55.744C81.9009 54.7613 82.2529 53.9693 82.9569 53.368C83.6756 52.7667 84.8122 52.466 86.3669 52.466H90.0409V51.762C90.0409 50.7647 89.7622 50.0093 89.2049 49.496C88.6476 48.968 87.8336 48.704 86.7629 48.704C86.0296 48.704 85.3256 48.8287 84.6509 49.078C83.9762 49.3127 83.3969 49.6427 82.9129 50.068L82.2089 48.902C82.7956 48.4033 83.4996 48.022 84.3209 47.758C85.1422 47.4793 86.0076 47.34 86.9169 47.34ZM86.3669 57.878C87.2469 57.878 88.0022 57.68 88.6329 57.284C89.2636 56.8733 89.7329 56.2867 90.0409 55.524V53.632H86.4109C84.4309 53.632 83.4409 54.3213 83.4409 55.7C83.4409 56.3747 83.6976 56.91 84.2109 57.306C84.7242 57.6873 85.4429 57.878 86.3669 57.878ZM95.7611 47.428H97.3231V56.624L105.045 47.428H106.431V59H104.869V49.804L97.1691 59H95.7611V47.428ZM101.019 45.756C100.022 45.756 99.2297 45.5067 98.6431 45.008C98.0564 44.5093 97.7557 43.8053 97.7411 42.896H98.8631C98.8777 43.468 99.0831 43.93 99.4791 44.282C99.8751 44.6193 100.388 44.788 101.019 44.788C101.65 44.788 102.163 44.6193 102.559 44.282C102.97 43.93 103.182 43.468 103.197 42.896H104.319C104.304 43.8053 103.996 44.5093 103.395 45.008C102.808 45.5067 102.016 45.756 101.019 45.756Z" fill="#1C3374"/><path d="M128.562 165.25C128.442 165.25 128.323 165.218 128.218 165.157L115.156 157.595C115.051 157.534 114.965 157.448 114.905 157.343C114.845 157.239 114.813 157.12 114.813 157C114.813 156.88 114.845 156.761 114.905 156.657C114.965 156.552 115.051 156.466 115.156 156.405L128.218 148.843C128.323 148.782 128.441 148.75 128.562 148.75C128.683 148.75 128.801 148.782 128.906 148.842C129.01 148.902 129.097 148.989 129.158 149.094C129.218 149.198 129.25 149.317 129.25 149.438V164.562C129.25 164.745 129.178 164.92 129.049 165.049C128.92 165.178 128.745 165.25 128.562 165.25ZM111.375 148.75H112.75V165.25H111.375V148.75Z" fill="#1C3374"/><path d="M212.438 147.75C212.558 147.75 212.677 147.782 212.782 147.843L225.844 155.405C225.949 155.466 226.035 155.552 226.095 155.657C226.155 155.761 226.187 155.88 226.187 156C226.187 156.12 226.155 156.239 226.095 156.343C226.035 156.448 225.949 156.534 225.844 156.595L212.782 164.157C212.677 164.218 212.559 164.25 212.438 164.25C212.317 164.25 212.199 164.218 212.094 164.158C211.99 164.098 211.903 164.011 211.842 163.906C211.782 163.802 211.75 163.683 211.75 163.562L211.75 148.437C211.75 148.255 211.822 148.08 211.951 147.951C212.08 147.822 212.255 147.75 212.438 147.75ZM229.625 164.25L228.25 164.25L228.25 147.75L229.625 147.75L229.625 164.25Z" fill="#1C3374"/><path d="M63.2129 160.412C63.3596 160.56 63.4419 160.76 63.4419 160.969C63.4419 161.177 63.3596 161.377 63.2129 161.525L60.8691 163.869C60.7198 164.014 60.5202 164.094 60.3125 164.094C60.1048 164.094 59.9052 164.014 59.7559 163.869C59.6092 163.721 59.5269 163.521 59.5269 163.313C59.5269 163.104 59.6092 162.904 59.7559 162.756L60.7715 161.75H59.6191C58.4996 161.748 57.3967 161.48 56.4016 160.967C55.4064 160.454 54.5477 159.711 53.8965 158.801L49.8242 153.107C49.3189 152.4 48.6523 151.822 47.8797 151.423C47.107 151.024 46.2505 150.815 45.3809 150.813H43.125C42.9178 150.813 42.7191 150.73 42.5726 150.584C42.4261 150.437 42.3438 150.238 42.3438 150.031C42.3438 149.824 42.4261 149.625 42.5726 149.479C42.7191 149.332 42.9178 149.25 43.125 149.25H45.3809C46.5004 149.252 47.6033 149.52 48.5984 150.033C49.5936 150.546 50.4523 151.289 51.1035 152.199L55.1758 157.893C55.6811 158.6 56.3477 159.178 57.1203 159.577C57.893 159.976 58.7495 160.185 59.6191 160.188H60.7715L59.7559 159.182C59.6313 159.03 59.5676 158.837 59.5772 158.641C59.5869 158.445 59.6691 158.259 59.808 158.12C59.9468 157.982 60.1324 157.899 60.3285 157.89C60.5246 157.88 60.7173 157.944 60.8691 158.068L63.2129 160.412ZM53.9648 153.449C54.0487 153.509 54.1436 153.552 54.2441 153.575C54.3446 153.598 54.4487 153.602 54.5504 153.584C54.6521 153.567 54.7493 153.53 54.8365 153.475C54.9238 153.42 54.9992 153.348 55.0586 153.264L55.1758 153.107C55.6811 152.4 56.3477 151.822 57.1203 151.423C57.893 151.024 58.7495 150.815 59.6191 150.813H60.7715L59.7559 151.818C59.6092 151.966 59.5269 152.167 59.5269 152.375C59.5269 152.583 59.6092 152.784 59.7559 152.932C59.9052 153.076 60.1048 153.157 60.3125 153.157C60.5202 153.157 60.7198 153.076 60.8691 152.932L63.2129 150.588C63.3596 150.44 63.4419 150.24 63.4419 150.031C63.4419 149.823 63.3596 149.623 63.2129 149.475L60.8691 147.131C60.7173 147.006 60.5246 146.943 60.3285 146.952C60.1324 146.962 59.9468 147.044 59.808 147.183C59.6691 147.322 59.5869 147.507 59.5772 147.704C59.5676 147.9 59.6313 148.092 59.7559 148.244L60.7715 149.25H59.6191C58.4996 149.252 57.3967 149.52 56.4016 150.033C55.4064 150.546 54.5477 151.289 53.8965 152.199L53.7891 152.355C53.7285 152.439 53.685 152.533 53.6611 152.633C53.6372 152.733 53.6332 152.837 53.6496 152.939C53.6659 153.041 53.7022 153.138 53.7563 153.226C53.8104 153.313 53.8813 153.389 53.9648 153.449ZM51.0352 157.551C50.9513 157.491 50.8564 157.448 50.7559 157.425C50.6554 157.402 50.5513 157.398 50.4496 157.416C50.3479 157.433 50.2507 157.47 50.1635 157.525C50.0762 157.58 50.0008 157.652 49.9414 157.736L49.8242 157.893C49.3189 158.6 48.6523 159.178 47.8797 159.577C47.107 159.976 46.2505 160.185 45.3809 160.188H43.125C42.9178 160.188 42.7191 160.27 42.5726 160.416C42.4261 160.563 42.3438 160.762 42.3438 160.969C42.3438 161.176 42.4261 161.375 42.5726 161.521C42.7191 161.668 42.9178 161.75 43.125 161.75H45.3809C46.5004 161.748 47.6033 161.48 48.5984 160.967C49.5936 160.454 50.4523 159.711 51.1035 158.801L51.2109 158.645C51.2715 158.561 51.315 158.467 51.3389 158.367C51.3628 158.267 51.3668 158.163 51.3504 158.061C51.3341 157.959 51.2978 157.862 51.2437 157.774C51.1896 157.687 51.1187 157.611 51.0352 157.551Z" fill="#1C3374"/><path d="M295.145 152.185C295.972 153.051 296.532 154.136 296.76 155.312C296.988 156.487 296.873 157.703 296.43 158.815C295.986 159.927 295.233 160.889 294.259 161.585C293.285 162.281 292.131 162.683 290.936 162.743L290.625 162.751L285.479 162.749L287.273 164.544C287.402 164.674 287.482 164.844 287.499 165.026C287.515 165.208 287.468 165.391 287.364 165.541L287.273 165.649C287.144 165.778 286.973 165.858 286.791 165.875C286.609 165.891 286.427 165.844 286.276 165.74L286.168 165.649L283.04 162.521C282.911 162.391 282.831 162.221 282.815 162.039C282.799 161.856 282.847 161.674 282.951 161.524L283.04 161.416L286.168 158.288C286.306 158.15 286.491 158.068 286.686 158.059C286.881 158.05 287.072 158.114 287.222 158.239C287.372 158.364 287.47 158.541 287.496 158.735C287.522 158.928 287.475 159.125 287.364 159.285L287.273 159.394L285.479 161.186H290.625C291.82 161.187 292.97 160.73 293.84 159.91C294.71 159.09 295.234 157.969 295.304 156.776L295.312 156.501C295.314 155.267 294.827 154.082 293.959 153.205C293.816 153.061 293.735 152.867 293.733 152.664C293.731 152.461 293.808 152.265 293.948 152.118C294.088 151.971 294.279 151.884 294.482 151.876C294.684 151.867 294.882 151.938 295.034 152.072L295.146 152.185H295.145ZM288.725 147.261L288.834 147.351L291.961 150.479L292.051 150.588C292.141 150.719 292.189 150.873 292.189 151.032C292.189 151.19 292.141 151.345 292.051 151.476L291.961 151.585L288.834 154.711L288.725 154.802C288.594 154.892 288.439 154.94 288.281 154.94C288.122 154.94 287.968 154.892 287.837 154.802L287.728 154.711L287.639 154.602C287.549 154.472 287.5 154.317 287.5 154.158C287.5 154 287.549 153.845 287.639 153.715L287.728 153.605L289.521 151.813H284.375C283.179 151.813 282.028 152.27 281.159 153.09C280.289 153.91 279.765 155.032 279.695 156.226L279.687 156.501C279.687 157.782 280.201 158.941 281.032 159.788C281.164 159.938 281.233 160.133 281.225 160.333C281.218 160.533 281.134 160.722 280.991 160.861C280.848 161.001 280.657 161.081 280.457 161.084C280.257 161.087 280.064 161.014 279.917 160.879C279.073 160.019 278.496 158.934 278.254 157.754C278.012 156.574 278.117 155.35 278.555 154.228C278.993 153.106 279.745 152.134 280.722 151.43C281.7 150.726 282.859 150.319 284.062 150.258L284.375 150.251L289.521 150.249L287.728 148.457L287.639 148.347C287.536 148.197 287.489 148.015 287.505 147.834C287.522 147.653 287.602 147.483 287.731 147.354C287.86 147.225 288.03 147.145 288.211 147.128C288.393 147.111 288.574 147.159 288.725 147.261Z" fill="#1C3374"/><path d="M194 156.5C194 162.733 191.524 168.71 187.117 173.117C182.71 177.524 176.733 180 170.5 180C164.267 180 158.29 177.524 153.883 173.117C149.476 168.71 147 162.733 147 156.5C147 150.267 149.476 144.29 153.883 139.883C158.29 135.476 164.267 133 170.5 133C176.733 133 182.71 135.476 187.117 139.883C191.524 144.29 194 150.267 194 156.5ZM166.946 147.961C166.726 147.804 166.468 147.711 166.199 147.692C165.93 147.673 165.661 147.728 165.421 147.851C165.181 147.975 164.98 148.162 164.84 148.392C164.7 148.622 164.625 148.887 164.625 149.156V163.844C164.625 164.113 164.7 164.378 164.84 164.608C164.98 164.838 165.181 165.025 165.421 165.149C165.661 165.272 165.93 165.327 166.199 165.308C166.468 165.289 166.726 165.196 166.946 165.039L177.227 157.696C177.417 157.56 177.572 157.38 177.68 157.172C177.787 156.964 177.842 156.734 177.842 156.5C177.842 156.266 177.787 156.036 177.68 155.828C177.572 155.62 177.417 155.44 177.227 155.304L166.946 147.961Z" fill="#1C3374"/><rect x="1" y="1" width="338" height="218" stroke="white" stroke-width="2"/></g></symbol><symbol id="logo" viewBox="0 0 205 62"><path d="M22.7109 40.218L28.1507 34.4824L34.3385 40.218H44.9461L28.0827 23.6255L11.3553 40.218H22.7109Z"/><path d="M38.2827 13.5881L30.259 21.7819L35.5628 27.2445L38.2827 24.5132L53.1742 39.3987C49.7743 48.4802 41.0706 54.967 30.8029 54.967C17.6114 54.967 6.93576 44.2467 6.93576 31C7.00376 17.7533 17.6794 7.03304 30.8709 7.03304C42.5665 7.03304 52.3582 15.5683 54.3301 26.6982L61.5379 34.3458C61.6739 33.2533 61.7419 32.0925 61.7419 31C61.7419 22.7379 58.546 14.9537 52.6982 9.0815C46.8504 3.20925 39.0987 0 30.8709 0C22.5752 0 14.8915 3.20925 9.04369 9.0815C3.19589 14.9537 0 22.6696 0 31C0 39.3304 3.19589 47.0463 9.04369 52.9185C14.8915 58.7907 22.6432 62 30.8709 62C39.0987 62 46.8504 58.7907 52.6982 52.9185C56.3021 49.2996 58.886 44.9978 60.3139 40.2863C60.5859 39.467 60.7899 38.5793 60.9939 37.7599L54.7381 31.1366L38.2827 13.5881Z"/><path d="M87.2138 19.9204H91.7535L89.2773 32.4222H96.9351L96.2015 36.0369H84.0039L87.2138 19.9204Z"/><path d="M101.208 19.9204H105.747L102.538 36.0369H97.9979L101.208 19.9204Z"/><path d="M112.806 23.443L112.095 26.9887H119.18L118.469 30.5113H111.408L110.307 36.0369H105.767L108.977 19.9204H121.542L120.831 23.443H112.806Z"/><path d="M127.448 23.443L126.921 26.1598H134.051L133.386 29.5673H126.233L125.659 32.5143H134.074L133.34 36.0369H120.478L123.688 19.9204H136.252L135.541 23.443H127.448Z"/><path d="M141.775 23.5351H136.845L137.579 19.9204H151.955L151.221 23.5351H146.315L143.815 36.0369H139.276L141.775 23.5351Z"/><path d="M158.879 36.3593C157.259 36.3593 155.845 36.06 154.637 35.4613C153.445 34.8627 152.52 34.0262 151.863 32.9518C151.221 31.8773 150.9 30.6494 150.9 29.268C150.9 27.4261 151.32 25.7684 152.161 24.2949C153.017 22.8214 154.202 21.6702 155.715 20.8414C157.243 20.0125 158.978 19.5981 160.919 19.5981C162.54 19.5981 163.946 19.8974 165.138 20.496C166.346 21.0946 167.27 21.9311 167.912 23.0056C168.57 24.08 168.898 25.3079 168.898 26.6893C168.898 28.5312 168.47 30.1889 167.614 31.6624C166.774 33.136 165.589 34.2871 164.061 35.116C162.547 35.9448 160.82 36.3593 158.879 36.3593ZM159.269 32.5834C160.278 32.5834 161.164 32.3301 161.928 31.8236C162.693 31.3171 163.281 30.6417 163.694 29.7975C164.106 28.938 164.313 27.994 164.313 26.9656C164.313 25.8758 163.977 25.0086 163.304 24.364C162.647 23.704 161.722 23.374 160.53 23.374C159.521 23.374 158.634 23.6272 157.87 24.1337C157.106 24.6402 156.517 25.3233 156.105 26.1828C155.692 27.027 155.486 27.9633 155.486 28.9917C155.486 30.0815 155.814 30.9564 156.471 31.6164C157.144 32.2611 158.076 32.5834 159.269 32.5834Z"/><path d="M177.421 36.3593C176.03 36.3593 174.83 36.129 173.821 35.6686C172.812 35.1927 172.04 34.5174 171.505 33.6425C170.97 32.7676 170.703 31.7392 170.703 30.5573C170.703 30.0661 170.764 29.4982 170.886 28.8536L172.675 19.9204H177.214L175.449 28.7845C175.357 29.245 175.311 29.6671 175.311 30.0508C175.311 31.7392 176.198 32.5834 177.971 32.5834C178.934 32.5834 179.69 32.2918 180.241 31.7085C180.806 31.1099 181.227 30.1352 181.502 28.7845L183.267 19.9204H187.738L185.927 29.0608C184.949 33.9264 182.113 36.3593 177.421 36.3593Z"/><path d="M204.157 25.0547C204.157 26.5282 203.768 27.8022 202.988 28.8766C202.209 29.9357 201.116 30.7108 199.709 31.202L202.438 36.0369H197.692L195.307 31.7545H193.015L192.166 36.0369H187.627L190.836 19.9204H197.692C199.74 19.9204 201.33 20.3732 202.461 21.2788C203.592 22.1844 204.157 23.443 204.157 25.0547ZM199.572 25.4921C199.572 24.8321 199.35 24.3409 198.907 24.0186C198.464 23.6809 197.845 23.5121 197.05 23.5121H194.665L193.702 28.2319H196.408C197.417 28.2319 198.196 27.994 198.746 27.5182C199.297 27.0424 199.572 26.367 199.572 25.4921Z"/><path d="M87.0264 51.2331C86.4734 51.2331 85.971 51.1103 85.5191 50.8647C85.0725 50.6138 84.7216 50.2721 84.4664 49.8396C84.2166 49.4072 84.0916 48.9214 84.0916 48.3821C84.0916 47.8429 84.2166 47.3571 84.4664 46.9247C84.7216 46.4922 85.0725 46.1532 85.5191 45.9076C85.971 45.6567 86.4734 45.5312 87.0264 45.5312C87.5793 45.5312 88.0764 45.654 88.5177 45.8996C88.9643 46.1452 89.3152 46.4869 89.5704 46.9247C89.8255 47.3571 89.9531 47.8429 89.9531 48.3821C89.9531 48.9214 89.8255 49.4099 89.5704 49.8477C89.3152 50.2801 88.9643 50.6191 88.5177 50.8647C88.0764 51.1103 87.5793 51.2331 87.0264 51.2331ZM87.0264 50.7045C87.4676 50.7045 87.8664 50.6058 88.2226 50.4082C88.5788 50.2053 88.8579 49.9277 89.06 49.5754C89.262 49.2177 89.363 48.8199 89.363 48.3821C89.363 47.9444 89.262 47.5493 89.06 47.1969C88.8579 46.8392 88.5788 46.5616 88.2226 46.3641C87.8664 46.1612 87.4676 46.0598 87.0264 46.0598C86.5851 46.0598 86.1837 46.1612 85.8222 46.3641C85.466 46.5616 85.1842 46.8392 84.9768 47.1969C84.7748 47.5493 84.6738 47.9444 84.6738 48.3821C84.6738 48.8199 84.7748 49.2177 84.9768 49.5754C85.1842 49.9277 85.466 50.2053 85.8222 50.4082C86.1837 50.6058 86.5851 50.7045 87.0264 50.7045Z"/><path d="M93.387 46.9407C93.7804 46.9407 94.1367 47.0314 94.4556 47.213C94.7746 47.3891 95.0245 47.6401 95.2053 47.9657C95.386 48.2914 95.4764 48.6624 95.4764 49.0789C95.4764 49.5006 95.386 49.8743 95.2053 50.2C95.0245 50.5257 94.7746 50.7793 94.4556 50.9608C94.142 51.137 93.7858 51.2251 93.387 51.2251C93.0467 51.2251 92.7384 51.1557 92.4619 51.0168C92.1908 50.8727 91.9675 50.6645 91.792 50.3922V52.7386H91.2258V46.9727H91.7681V47.8056C91.9382 47.5279 92.1615 47.3144 92.438 47.1649C92.7198 47.0154 93.0361 46.9407 93.387 46.9407ZM93.3471 50.7205C93.6395 50.7205 93.9054 50.6538 94.1446 50.5203C94.3839 50.3815 94.5699 50.1867 94.7029 49.9357C94.8411 49.6848 94.9102 49.3992 94.9102 49.0789C94.9102 48.7585 94.8411 48.4756 94.7029 48.23C94.5699 47.9791 94.3839 47.7842 94.1446 47.6454C93.9054 47.5066 93.6395 47.4372 93.3471 47.4372C93.0494 47.4372 92.7809 47.5066 92.5417 47.6454C92.3077 47.7842 92.1217 47.9791 91.9834 48.23C91.8505 48.4756 91.7841 48.7585 91.7841 49.0789C91.7841 49.3992 91.8505 49.6848 91.9834 49.9357C92.1217 50.1867 92.3077 50.3815 92.5417 50.5203C92.7809 50.6538 93.0494 50.7205 93.3471 50.7205Z"/><path d="M99.6596 47.4772H97.2592V51.185H96.693V46.9727H99.6596V47.4772Z"/><path d="M101.921 46.9407C102.469 46.9407 102.889 47.0795 103.181 47.3571C103.474 47.6294 103.62 48.0351 103.62 48.5743V51.185H103.078V50.5283C102.95 50.7472 102.761 50.9181 102.512 51.0409C102.267 51.1637 101.975 51.2251 101.634 51.2251C101.166 51.2251 100.794 51.1129 100.518 50.8887C100.241 50.6645 100.103 50.3682 100.103 49.9998C100.103 49.6421 100.231 49.3538 100.486 49.1349C100.746 48.916 101.158 48.8066 101.722 48.8066H103.054V48.5503C103.054 48.1873 102.953 47.9123 102.751 47.7255C102.549 47.5333 102.254 47.4372 101.866 47.4372C101.6 47.4372 101.345 47.4826 101.1 47.5733C100.855 47.6587 100.645 47.7789 100.47 47.9337L100.215 47.5093C100.427 47.3277 100.683 47.1889 100.98 47.0928C101.278 46.9914 101.592 46.9407 101.921 46.9407ZM101.722 50.7766C102.041 50.7766 102.315 50.7045 102.543 50.5604C102.772 50.4109 102.942 50.1973 103.054 49.9197V49.231H101.738C101.02 49.231 100.661 49.4819 100.661 49.9838C100.661 50.2294 100.754 50.4242 100.94 50.5684C101.127 50.7072 101.387 50.7766 101.722 50.7766Z"/><path d="M105.127 46.9727H105.694V48.8386H108.333V46.9727H108.899V51.185H108.333V49.3271H105.694V51.185H105.127V46.9727Z"/><path d="M110.509 46.9727H111.075V50.3201L113.874 46.9727H114.377V51.185H113.81V47.8376L111.019 51.185H110.509V46.9727Z"/><path d="M117.955 48.9908C118.253 49.0602 118.482 49.1803 118.641 49.3511C118.806 49.522 118.888 49.7302 118.888 49.9758C118.888 50.2214 118.803 50.4403 118.633 50.6325C118.468 50.8246 118.242 50.9741 117.955 51.0809C117.668 51.1824 117.352 51.2331 117.006 51.2331C116.703 51.2331 116.405 51.1904 116.113 51.1049C115.821 51.0142 115.565 50.8834 115.347 50.7125L115.539 50.2881C115.73 50.4322 115.954 50.5444 116.209 50.6244C116.464 50.7045 116.722 50.7446 116.982 50.7446C117.37 50.7446 117.687 50.6725 117.931 50.5283C118.181 50.3789 118.306 50.1787 118.306 49.9277C118.306 49.7035 118.205 49.53 118.003 49.4072C117.801 49.2791 117.525 49.215 117.174 49.215H116.456V48.7986H117.142C117.455 48.7986 117.708 48.7398 117.899 48.6224C118.091 48.4996 118.186 48.3368 118.186 48.1339C118.186 47.9097 118.077 47.7335 117.86 47.6054C117.647 47.4772 117.368 47.4132 117.022 47.4132C116.57 47.4132 116.124 47.5279 115.682 47.7575L115.523 47.3171C116.023 47.0555 116.541 46.9247 117.078 46.9247C117.397 46.9247 117.684 46.9727 117.939 47.0688C118.2 47.1596 118.402 47.2904 118.545 47.4612C118.694 47.632 118.769 47.8296 118.769 48.0538C118.769 48.2674 118.694 48.4569 118.545 48.6224C118.402 48.7879 118.205 48.9107 117.955 48.9908Z"/><path d="M121.617 46.9407C122.165 46.9407 122.585 47.0795 122.877 47.3571C123.17 47.6294 123.316 48.0351 123.316 48.5743V51.185H122.773V50.5283C122.646 50.7472 122.457 50.9181 122.207 51.0409C121.963 51.1637 121.67 51.2251 121.33 51.2251C120.862 51.2251 120.49 51.1129 120.214 50.8887C119.937 50.6645 119.799 50.3682 119.799 49.9998C119.799 49.6421 119.926 49.3538 120.182 49.1349C120.442 48.916 120.854 48.8066 121.418 48.8066H122.75V48.5503C122.75 48.1873 122.649 47.9123 122.446 47.7255C122.244 47.5333 121.949 47.4372 121.561 47.4372C121.295 47.4372 121.04 47.4826 120.796 47.5733C120.551 47.6587 120.341 47.7789 120.166 47.9337L119.91 47.5093C120.123 47.3277 120.378 47.1889 120.676 47.0928C120.974 46.9914 121.287 46.9407 121.617 46.9407ZM121.418 50.7766C121.737 50.7766 122.011 50.7045 122.239 50.5604C122.468 50.4109 122.638 50.1973 122.75 49.9197V49.231H121.434C120.716 49.231 120.357 49.4819 120.357 49.9838C120.357 50.2294 120.45 50.4242 120.636 50.5684C120.822 50.7072 121.083 50.7766 121.418 50.7766Z"/><path d="M129.193 50.6885V52.2421H128.659V51.185H124.823V46.9727H125.389V50.6885H127.949V46.9727H128.515V50.6885H129.193Z"/><path d="M130.275 46.9727H130.841V50.3201L133.64 46.9727H134.142V51.185H133.576V47.8376L130.785 51.185H130.275V46.9727Z"/><path d="M138.987 46.9727V51.185H138.469V49.7916H136.993L136.02 51.185H135.406L136.451 49.7115C136.127 49.6208 135.877 49.4659 135.701 49.247C135.526 49.0281 135.438 48.7505 135.438 48.4142C135.438 47.9444 135.598 47.5867 135.917 47.3411C136.236 47.0955 136.672 46.9727 137.225 46.9727H138.987ZM136.012 48.4302C136.012 49.0548 136.408 49.3672 137.201 49.3672H138.469V47.4772H137.24C136.422 47.4772 136.012 47.7949 136.012 48.4302Z"/><path d="M146.453 46.9727V51.185H145.887V47.4772H143.255V51.185H142.689V46.9727H146.453Z"/><path d="M149.793 51.2251C149.389 51.2251 149.025 51.1343 148.7 50.9528C148.376 50.7659 148.121 50.5097 147.935 50.184C147.749 49.8583 147.656 49.4899 147.656 49.0789C147.656 48.6678 147.749 48.2994 147.935 47.9737C148.121 47.6481 148.376 47.3945 148.7 47.213C149.025 47.0314 149.389 46.9407 149.793 46.9407C150.197 46.9407 150.561 47.0314 150.885 47.213C151.21 47.3945 151.462 47.6481 151.643 47.9737C151.829 48.2994 151.922 48.6678 151.922 49.0789C151.922 49.4899 151.829 49.8583 151.643 50.184C151.462 50.5097 151.21 50.7659 150.885 50.9528C150.561 51.1343 150.197 51.2251 149.793 51.2251ZM149.793 50.7205C150.091 50.7205 150.356 50.6538 150.59 50.5203C150.83 50.3815 151.016 50.1867 151.149 49.9357C151.282 49.6848 151.348 49.3992 151.348 49.0789C151.348 48.7585 151.282 48.4729 151.149 48.222C151.016 47.9711 150.83 47.7789 150.59 47.6454C150.356 47.5066 150.091 47.4372 149.793 47.4372C149.495 47.4372 149.227 47.5066 148.987 47.6454C148.753 47.7789 148.567 47.9711 148.429 48.222C148.296 48.4729 148.23 48.7585 148.23 49.0789C148.23 49.3992 148.296 49.6848 148.429 49.9357C148.567 50.1867 148.753 50.3815 148.987 50.5203C149.227 50.6538 149.495 50.7205 149.793 50.7205Z"/><path d="M155.608 51.185L154.276 49.4232L152.936 51.185H152.298L153.957 49.0228L152.378 46.9727H153.016L154.276 48.6224L155.536 46.9727H156.158L154.579 49.0228L156.254 51.185H155.608Z"/><path d="M158.765 51.2251C158.361 51.2251 157.996 51.1343 157.672 50.9528C157.348 50.7659 157.093 50.5097 156.906 50.184C156.72 49.8583 156.627 49.4899 156.627 49.0789C156.627 48.6678 156.72 48.2994 156.906 47.9737C157.093 47.6481 157.348 47.3945 157.672 47.213C157.996 47.0314 158.361 46.9407 158.765 46.9407C159.169 46.9407 159.533 47.0314 159.857 47.213C160.181 47.3945 160.434 47.6481 160.615 47.9737C160.801 48.2994 160.894 48.6678 160.894 49.0789C160.894 49.4899 160.801 49.8583 160.615 50.184C160.434 50.5097 160.181 50.7659 159.857 50.9528C159.533 51.1343 159.169 51.2251 158.765 51.2251ZM158.765 50.7205C159.062 50.7205 159.328 50.6538 159.562 50.5203C159.801 50.3815 159.987 50.1867 160.12 49.9357C160.253 49.6848 160.32 49.3992 160.32 49.0789C160.32 48.7585 160.253 48.4729 160.12 48.222C159.987 47.9711 159.801 47.7789 159.562 47.6454C159.328 47.5066 159.062 47.4372 158.765 47.4372C158.467 47.4372 158.198 47.5066 157.959 47.6454C157.725 47.7789 157.539 47.9711 157.401 48.222C157.268 48.4729 157.202 48.7585 157.202 49.0789C157.202 49.3992 157.268 49.6848 157.401 49.9357C157.539 50.1867 157.725 50.3815 157.959 50.5203C158.198 50.6538 158.467 50.7205 158.765 50.7205Z"/><path d="M166.172 50.6885V52.2021H165.637V51.185H161.881V52.2021H161.347V50.6885H161.586C161.868 50.6725 162.059 50.4643 162.16 50.0639C162.261 49.6635 162.331 49.1029 162.368 48.3821L162.424 46.9727H165.518V50.6885H166.172ZM162.886 48.4142C162.86 49.0121 162.809 49.506 162.735 49.8957C162.66 50.2801 162.527 50.5444 162.336 50.6885H164.952V47.4772H162.934L162.886 48.4142Z"/><path d="M169.006 51.2251C168.602 51.2251 168.238 51.1343 167.913 50.9528C167.589 50.7659 167.334 50.5097 167.148 50.184C166.962 49.8583 166.868 49.4899 166.868 49.0789C166.868 48.6678 166.962 48.2994 167.148 47.9737C167.334 47.6481 167.589 47.3945 167.913 47.213C168.238 47.0314 168.602 46.9407 169.006 46.9407C169.41 46.9407 169.774 47.0314 170.098 47.213C170.423 47.3945 170.675 47.6481 170.856 47.9737C171.042 48.2994 171.135 48.6678 171.135 49.0789C171.135 49.4899 171.042 49.8583 170.856 50.184C170.675 50.5097 170.423 50.7659 170.098 50.9528C169.774 51.1343 169.41 51.2251 169.006 51.2251ZM169.006 50.7205C169.303 50.7205 169.569 50.6538 169.803 50.5203C170.042 50.3815 170.229 50.1867 170.361 49.9357C170.494 49.6848 170.561 49.3992 170.561 49.0789C170.561 48.7585 170.494 48.4729 170.361 48.222C170.229 47.9711 170.042 47.7789 169.803 47.6454C169.569 47.5066 169.303 47.4372 169.006 47.4372C168.708 47.4372 168.44 47.5066 168.2 47.6454C167.966 47.7789 167.78 47.9711 167.642 48.222C167.509 48.4729 167.443 48.7585 167.443 49.0789C167.443 49.3992 167.509 49.6848 167.642 49.9357C167.78 50.1867 167.966 50.3815 168.2 50.5203C168.44 50.6538 168.708 50.7205 169.006 50.7205Z"/><path d="M175.017 49.0068C175.586 49.1403 175.87 49.4846 175.87 50.0398C175.87 50.4082 175.734 50.6912 175.463 50.8887C175.192 51.0863 174.788 51.185 174.251 51.185H172.345V46.9727H174.195C174.674 46.9727 175.049 47.0661 175.32 47.253C175.591 47.4398 175.727 47.7068 175.727 48.0538C175.727 48.2834 175.663 48.4809 175.535 48.6464C175.413 48.8066 175.24 48.9267 175.017 49.0068ZM172.895 48.8466H174.155C174.48 48.8466 174.727 48.7852 174.897 48.6624C175.073 48.5396 175.16 48.3608 175.16 48.1259C175.16 47.891 175.073 47.7148 174.897 47.5973C174.727 47.4799 174.48 47.4212 174.155 47.4212H172.895V48.8466ZM174.227 50.7366C174.589 50.7366 174.86 50.6778 175.041 50.5604C175.221 50.4429 175.312 50.2587 175.312 50.0078C175.312 49.7569 175.229 49.5727 175.065 49.4552C174.9 49.3325 174.639 49.2711 174.283 49.2711H172.895V50.7366H174.227Z"/><path d="M181.956 49.0068C182.525 49.1403 182.809 49.4846 182.809 50.0398C182.809 50.4082 182.674 50.6912 182.402 50.8887C182.131 51.0863 181.727 51.185 181.19 51.185H179.284V46.9727H181.134C181.613 46.9727 181.988 47.0661 182.259 47.253C182.53 47.4398 182.666 47.7068 182.666 48.0538C182.666 48.2834 182.602 48.4809 182.474 48.6464C182.352 48.8066 182.179 48.9267 181.956 49.0068ZM179.835 48.8466H181.095C181.419 48.8466 181.666 48.7852 181.836 48.6624C182.012 48.5396 182.099 48.3608 182.099 48.1259C182.099 47.891 182.012 47.7148 181.836 47.5973C181.666 47.4799 181.419 47.4212 181.095 47.4212H179.835V48.8466ZM181.166 50.7366C181.528 50.7366 181.799 50.6778 181.98 50.5604C182.161 50.4429 182.251 50.2587 182.251 50.0078C182.251 49.7569 182.168 49.5727 182.004 49.4552C181.839 49.3325 181.578 49.2711 181.222 49.2711H179.835V50.7366H181.166Z"/><path d="M189.19 47.4772H186.79V51.185H186.223V46.9727H189.19V47.4772Z"/><path d="M191.544 51.2251C191.14 51.2251 190.776 51.1343 190.452 50.9528C190.127 50.7659 189.872 50.5097 189.686 50.184C189.5 49.8583 189.407 49.4899 189.407 49.0789C189.407 48.6678 189.5 48.2994 189.686 47.9737C189.872 47.6481 190.127 47.3945 190.452 47.213C190.776 47.0314 191.14 46.9407 191.544 46.9407C191.948 46.9407 192.312 47.0314 192.637 47.213C192.961 47.3945 193.214 47.6481 193.394 47.9737C193.58 48.2994 193.673 48.6678 193.673 49.0789C193.673 49.4899 193.58 49.8583 193.394 50.184C193.214 50.5097 192.961 50.7659 192.637 50.9528C192.312 51.1343 191.948 51.2251 191.544 51.2251ZM191.544 50.7205C191.842 50.7205 192.108 50.6538 192.342 50.5203C192.581 50.3815 192.767 50.1867 192.9 49.9357C193.033 49.6848 193.099 49.3992 193.099 49.0789C193.099 48.7585 193.033 48.4729 192.9 48.222C192.767 47.9711 192.581 47.7789 192.342 47.6454C192.108 47.5066 191.842 47.4372 191.544 47.4372C191.246 47.4372 190.978 47.5066 190.739 47.6454C190.505 47.7789 190.319 47.9711 190.18 48.222C190.047 48.4729 189.981 48.7585 189.981 49.0789C189.981 49.3992 190.047 49.6848 190.18 49.9357C190.319 50.1867 190.505 50.3815 190.739 50.5203C190.978 50.6538 191.246 50.7205 191.544 50.7205Z"/><path d="M197.045 46.9407C197.438 46.9407 197.794 47.0314 198.113 47.213C198.432 47.3891 198.682 47.6401 198.863 47.9657C199.044 48.2914 199.134 48.6624 199.134 49.0789C199.134 49.5006 199.044 49.8743 198.863 50.2C198.682 50.5257 198.432 50.7793 198.113 50.9608C197.8 51.137 197.443 51.2251 197.045 51.2251C196.704 51.2251 196.396 51.1557 196.12 51.0168C195.848 50.8727 195.625 50.6645 195.45 50.3922V52.7386H194.884V46.9727H195.426V47.8056C195.596 47.5279 195.819 47.3144 196.096 47.1649C196.377 47.0154 196.694 46.9407 197.045 46.9407ZM197.005 50.7205C197.297 50.7205 197.563 50.6538 197.802 50.5203C198.042 50.3815 198.228 50.1867 198.361 49.9357C198.499 49.6848 198.568 49.3992 198.568 49.0789C198.568 48.7585 198.499 48.4756 198.361 48.23C198.228 47.9791 198.042 47.7842 197.802 47.6454C197.563 47.5066 197.297 47.4372 197.005 47.4372C196.707 47.4372 196.439 47.5066 196.199 47.6454C195.965 47.7842 195.779 47.9791 195.641 48.23C195.508 48.4756 195.442 48.7585 195.442 49.0789C195.442 49.3992 195.508 49.6848 195.641 49.9357C195.779 50.1867 195.965 50.3815 196.199 50.5203C196.439 50.6538 196.707 50.7205 197.005 50.7205Z"/><path d="M202.113 48.4622C202.639 48.4676 203.041 48.585 203.317 48.8146C203.594 49.0442 203.732 49.3752 203.732 49.8076C203.732 50.2561 203.583 50.6004 203.285 50.8407C202.988 51.0809 202.562 51.1984 202.009 51.193L200.351 51.185V46.9727H200.917V48.4462L202.113 48.4622ZM204.434 46.9727H205V51.185H204.434V46.9727ZM201.978 50.7606C202.366 50.7659 202.658 50.6885 202.855 50.5283C203.057 50.3628 203.158 50.1226 203.158 49.8076C203.158 49.498 203.059 49.2684 202.863 49.1189C202.666 48.9694 202.371 48.892 201.978 48.8867L200.917 48.8706V50.7446L201.978 50.7606Z"/></symbol><symbol id="mail" viewBox="0 0 26 26"><path d="M24.818 6.56592V19.4346C24.818 20.4499 24.0621 21.273 23.1297 21.273H2.86995C1.93752 21.273 1.18164 20.4499 1.18164 19.4346V6.56592M24.818 6.56592C24.818 5.55061 24.0621 4.72754 23.1297 4.72754H2.86995C1.93752 4.72754 1.18164 5.55061 1.18164 6.56592M24.818 6.56592L15.1973 15.5452C13.9328 16.7254 12.0669 16.7254 10.8024 15.5452L1.18164 6.56592" stroke-linecap="round" stroke-linejoin="round"/></symbol><symbol id="ok" viewBox="0 0 9 16"><path d="M4.5 2.42035C5.41587 2.42035 6.1607 3.18736 6.1607 4.1305C6.1607 5.0708 5.41587 5.83781 4.5 5.83781C3.58413 5.83781 2.8393 5.0708 2.8393 4.1305C2.8393 3.18736 3.58413 2.42035 4.5 2.42035ZM4.5 8.25816C6.71243 8.25816 8.51106 6.40597 8.51106 4.1305C8.51106 1.85219 6.71243 0 4.5 0C2.28757 0 0.491701 1.85219 0.491701 4.1305C0.491701 6.40597 2.28757 8.25816 4.5 8.25816ZM6.12208 11.6273C6.93863 11.4342 7.72485 11.1018 8.45037 10.6331C8.99934 10.278 9.16486 9.53083 8.82003 8.96551C8.47244 8.39735 7.74967 8.22691 7.19795 8.58485C5.55656 9.6473 3.44344 9.6473 1.79929 8.58485C1.25033 8.22691 0.524805 8.39735 0.179975 8.96551C-0.164855 9.53083 0.000663014 10.278 0.549632 10.6331C1.27515 11.1018 2.06136 11.4342 2.87792 11.6273L0.63515 13.934C0.177216 14.4056 0.177216 15.1726 0.63515 15.6442C0.866875 15.88 1.16481 15.9993 1.4655 15.9993C1.76619 15.9993 2.06688 15.88 2.29861 15.6442L4.5 13.3772L6.70415 15.6442C7.16208 16.1186 7.90416 16.1186 8.36485 15.6442C8.82278 15.1726 8.82278 14.4056 8.36485 13.934L6.12208 11.6273Z"/></symbol><symbol id="phone" viewBox="0 0 26 26"><g clip-path="url(#clip0_248_2060)"><path d="M22.8368 23.6885C22.4584 24.4342 21.6789 24.8974 20.8502 24.8067C20.494 24.7677 20.1382 24.72 19.783 24.6636C15.1541 23.9275 10.8761 21.7392 7.56222 18.4122C4.24829 15.0852 2.06855 10.7904 1.3354 6.14328C1.27919 5.78698 1.2317 5.43001 1.19289 5.07268C1.10253 4.24071 1.56391 3.45809 2.30667 3.07814L5.55725 1.41536C6.81529 0.771838 8.33752 1.5225 8.77994 2.8686C9.04827 3.68504 9.36516 4.48843 9.73023 5.2744C9.91316 5.66825 10.1072 6.0556 10.312 6.43607C10.7968 7.33683 10.4698 8.49216 9.54135 8.91583C8.19298 9.53113 7.87184 11.3091 8.91916 12.3605L13.5902 17.0499C14.6375 18.1014 16.4085 17.779 17.0214 16.4253C17.4666 15.4418 18.6736 15.0858 19.632 15.577C19.8643 15.6961 20.0991 15.8112 20.3363 15.9222C21.2349 16.3429 22.1563 16.6998 23.094 16.9925C24.4592 17.4186 25.2342 18.965 24.5851 20.2438L22.8368 23.6885Z" stroke-linecap="round" stroke-linejoin="round"/></g></symbol><symbol id="play" viewBox="0 0 12 22"><path d="M12 11L0 0V22L12 11Z"/></symbol><symbol id="reddit" viewBox="0 0 14 15"><path d="M8.36171 0C7.91277 0 7.49149 0.244007 7.22128 0.59589C6.95106 0.947774 6.80213 1.37671 6.69362 1.82877C6.52128 2.55565 6.46808 3.36216 6.45532 4.08904C5.19361 4.17894 4.05105 4.57962 3.10211 5.19863C2.717 4.85188 2.25317 4.65925 1.80849 4.66438C1.3021 4.66952 0.821252 4.90325 0.463803 5.38356C-0.219178 6.30051 -0.140455 7.80051 0.651038 8.69178C0.602102 8.96661 0.565931 9.24914 0.565931 9.53425C0.565931 12.5548 3.44679 15 7 15C10.5532 15 13.4341 12.5522 13.4341 9.53425C13.4341 9.24914 13.3979 8.96661 13.349 8.69178C14.1405 7.80051 14.2192 6.30051 13.5362 5.38356C13.1788 4.90325 12.6979 4.66952 12.1915 4.66438C11.7468 4.65925 11.283 4.85188 10.8979 5.19863C9.9532 4.58219 8.81703 4.18151 7.5617 4.08904C7.57873 3.41866 7.62341 2.7226 7.74894 2.19863C7.82766 1.86986 7.92128 1.63099 8.02128 1.5C8.12128 1.36901 8.19362 1.31507 8.36171 1.31507C8.72554 1.31507 8.77235 1.44092 8.9915 1.74658C9.10214 1.90068 9.2298 2.09332 9.43405 2.28082C9.63831 2.46832 9.94044 2.63014 10.2681 2.63014V1.31507C10.1766 1.31507 10.1596 1.3125 10.0979 1.25342C10.0362 1.19435 9.95108 1.05822 9.82554 0.883562C9.57448 0.531678 9.08724 0 8.36171 0ZM11.9021 0.123288C11.0553 0.123288 10.3702 0.950343 10.3702 1.9726C10.3702 2.99486 11.0553 3.82192 11.9021 3.82192C12.749 3.82192 13.4341 2.99486 13.4341 1.9726C13.4341 0.950343 12.749 0.123288 11.9021 0.123288ZM11.9021 0.780822C12.4468 0.780822 12.8894 1.31507 12.8894 1.9726C12.8894 2.63014 12.4468 3.16438 11.9021 3.16438C11.3575 3.16438 10.9149 2.63014 10.9149 1.9726C10.9149 1.31507 11.3575 0.780822 11.9021 0.780822ZM7 5.11644C10.0149 5.11644 12.566 7.14298 12.566 9.53425C12.566 11.9281 10.0149 13.9521 7 13.9521C3.98509 13.9521 1.43402 11.9281 1.43402 9.53425C1.43402 7.14298 3.98509 5.11644 7 5.11644ZM1.82551 5.71233C1.97658 5.7149 2.13402 5.75599 2.28509 5.83562C1.73828 6.33647 1.30423 6.91182 1.00849 7.56164C0.80423 7.05308 0.85955 6.41866 1.11061 6.08219C1.29359 5.83562 1.54679 5.70976 1.82551 5.71233ZM12.1745 5.71233C12.4532 5.70976 12.7064 5.83562 12.8894 6.08219C13.1405 6.41866 13.1958 7.05308 12.9915 7.56164C12.6958 6.91182 12.2617 6.33647 11.7149 5.83562C11.866 5.75599 12.0234 5.7149 12.1745 5.71233ZM4.82127 7.35616C4.27658 7.35616 3.83403 7.89041 3.83403 8.54795C3.83403 9.20548 4.27658 9.73973 4.82127 9.73973C5.36595 9.73973 5.80851 9.20548 5.80851 8.54795C5.80851 7.89041 5.36595 7.35616 4.82127 7.35616ZM9.17873 7.35616C8.63405 7.35616 8.19149 7.89041 8.19149 8.54795C8.19149 9.20548 8.63405 9.73973 9.17873 9.73973C9.72342 9.73973 10.166 9.20548 10.166 8.54795C10.166 7.89041 9.72342 7.35616 9.17873 7.35616ZM4.29361 11.4041C4.64042 12.2697 5.71276 13.1096 7 13.1096C8.28724 13.1096 9.37661 12.2697 9.72342 11.4041C9.09363 11.8947 8.10001 12.226 7 12.226C5.9 12.226 4.9234 11.8947 4.29361 11.4041Z"/></symbol><symbol id="stars-belukha" viewBox="0 0 79 14"><g fill="none"><g clip-path="url(#clip0_248_2488)"><path d="M7.5 11.0412L12.135 13.6501L10.9087 8.72981L15 5.4209L9.60677 4.98898L7.5 0.350098L5.39327 4.98898L0 5.4209L4.09126 8.72981L2.865 13.6501L7.5 11.0412Z" fill="white"/></g><g clip-path="url(#clip1_248_2488)"><path d="M23.5 11.0412L28.135 13.6501L26.9087 8.72981L31 5.4209L25.6068 4.98898L23.5 0.350098L21.3933 4.98898L16 5.4209L20.0913 8.72981L18.865 13.6501L23.5 11.0412Z" fill="white"/></g><g clip-path="url(#clip2_248_2488)"><path d="M39.7453 10.6055L39.5 10.4674L39.2547 10.6055L35.6307 12.6453L36.5764 8.85073L36.6535 8.54147L36.4057 8.34105L33.2878 5.81937L37.4332 5.48739L37.7267 5.46388L37.8485 5.19573L39.5 1.55927L41.1515 5.19574L41.2733 5.46388L41.5669 5.48739L45.7122 5.81937L42.5943 8.34105L42.3465 8.54147L42.4236 8.85073L43.3693 12.6453L39.7453 10.6055Z" stroke="white"/></g><g clip-path="url(#clip3_248_2488)"><path d="M55.7453 10.6055L55.5 10.4674L55.2547 10.6055L51.6307 12.6453L52.5764 8.85073L52.6535 8.54147L52.4057 8.34105L49.2878 5.81937L53.4332 5.48739L53.7267 5.46388L53.8485 5.19573L55.5 1.55927L57.1515 5.19574L57.2733 5.46388L57.5669 5.48739L61.7122 5.81937L58.5943 8.34105L58.3465 8.54147L58.4236 8.85073L59.3693 12.6453L55.7453 10.6055Z" stroke="white"/></g><g clip-path="url(#clip4_248_2488)"><path d="M71.7453 10.6055L71.5 10.4674L71.2547 10.6055L67.6307 12.6453L68.5764 8.85073L68.6535 8.54147L68.4057 8.34105L65.2878 5.81937L69.4332 5.48739L69.7267 5.46388L69.8485 5.19573L71.5 1.55927L73.1515 5.19574L73.2733 5.46388L73.5669 5.48739L77.7122 5.81937L74.5943 8.34105L74.3465 8.54147L74.4236 8.85073L75.3693 12.6453L71.7453 10.6055Z" stroke="white"/></g></g></symbol><symbol id="stars" viewBox="0 0 79 14"><g fill="none"><g clip-path="url(#clip0_248_2533)"><path d="M7.5 11.0412L12.135 13.6501L10.9087 8.72981L15 5.4209L9.60676 4.98898L7.5 0.350098L5.39326 4.98898L0 5.4209L4.09126 8.72981L2.865 13.6501L7.5 11.0412Z" fill="white"/></g><g clip-path="url(#clip1_248_2533)"><path d="M23.5 11.0412L28.135 13.6501L26.9087 8.72981L31 5.4209L25.6068 4.98898L23.5 0.350098L21.3933 4.98898L16 5.4209L20.0913 8.72981L18.865 13.6501L23.5 11.0412Z" fill="white"/></g><g clip-path="url(#clip2_248_2533)"><path d="M39.5 11.0412L44.135 13.6501L42.9087 8.72981L47 5.4209L41.6068 4.98898L39.5 0.350098L37.3933 4.98898L32 5.4209L36.0913 8.72981L34.865 13.6501L39.5 11.0412Z" fill="white"/></g><g clip-path="url(#clip3_248_2533)"><path d="M55.7453 10.6055L55.5 10.4674L55.2547 10.6055L51.6307 12.6453L52.5764 8.85073L52.6535 8.54147L52.4057 8.34105L49.2878 5.81937L53.4332 5.48739L53.7267 5.46388L53.8485 5.19573L55.5 1.55927L57.1515 5.19574L57.2733 5.46388L57.5669 5.48739L61.7122 5.81937L58.5943 8.34105L58.3465 8.54147L58.4236 8.85073L59.3693 12.6453L55.7453 10.6055Z" stroke="white"/></g><g clip-path="url(#clip4_248_2533)"><path d="M71.7453 10.6055L71.5 10.4674L71.2547 10.6055L67.6307 12.6453L68.5764 8.85073L68.6535 8.54147L68.4057 8.34105L65.2878 5.81937L69.4332 5.48739L69.7267 5.46388L69.8485 5.19573L71.5 1.55927L73.1515 5.19574L73.2733 5.46388L73.5669 5.48739L77.7122 5.81937L74.5943 8.34105L74.3465 8.54147L74.4236 8.85073L75.3693 12.6453L71.7453 10.6055Z" stroke="white"/></g></g></symbol><symbol id="tours-link" viewBox="0 0 9 14"><path d="M1 13L7 7L0.999999 1" stroke-width="2"/></symbol><symbol id="vk" viewBox="0 0 16 9"><path d="M15.8574 8.02743C15.8144 7.95645 15.5484 7.38659 14.2683 6.21531C12.9282 4.98883 13.1082 5.18799 14.7223 3.06728C15.7054 1.77572 16.0984 0.986988 15.9754 0.649804C15.8584 0.328395 15.1353 0.413184 15.1353 0.413184L12.7312 0.426986C12.7312 0.426986 12.5531 0.403324 12.4201 0.481212C12.2911 0.558114 12.2081 0.735579 12.2081 0.735579C12.2081 0.735579 11.8271 1.7353 11.3191 2.58516C10.248 4.37855 9.81894 4.4732 9.64393 4.36179C9.2369 4.10249 9.33891 3.31869 9.33891 2.76263C9.33891 1.02445 9.60593 0.299803 8.81787 0.112478C8.55585 0.0503654 8.36384 0.00895679 7.69479 0.00205536C6.83672 -0.00681791 6.10967 0.00501311 5.69864 0.203183C5.42462 0.335296 5.21361 0.630086 5.34262 0.646846C5.50163 0.667551 5.86165 0.74248 6.05267 0.998819C6.29969 1.3291 6.29069 2.07248 6.29069 2.07248C6.29069 2.07248 6.4327 4.11827 5.95966 4.37263C5.63464 4.54714 5.1896 4.19122 4.23453 2.56347C3.7455 1.73037 3.37547 0.808537 3.37547 0.808537C3.37547 0.808537 3.30447 0.636987 3.17746 0.545297C3.02345 0.433888 2.80743 0.398395 2.80743 0.398395L0.521262 0.412198C0.521262 0.412198 0.178236 0.422057 0.0522271 0.568959C-0.0597811 0.700086 0.0432264 0.970227 0.0432264 0.970227C0.0432264 0.970227 1.83336 5.09827 3.85951 7.17954C5.71864 9.0873 7.8288 8.96208 7.8288 8.96208H8.78487C8.78487 8.96208 9.07389 8.93054 9.2209 8.77377C9.35691 8.62983 9.35191 8.35969 9.35191 8.35969C9.35191 8.35969 9.33291 7.09475 9.92895 6.90842C10.516 6.72504 11.2701 8.13095 12.0691 8.67222C12.6732 9.08138 13.1322 8.99166 13.1322 8.99166L15.2693 8.96208C15.2693 8.96208 16.3874 8.89406 15.8574 8.02743Z"/></symbol></svg>