<svg width="340" height="220" viewBox="0 0 340 220" fill="none" xmlns="http://www.w3.org/2000/svg">
<rect x="1" y="1" width="338" height="218" fill="#F5F6FA" fill-opacity="0.9"/>
<path opacity="0.4" d="M41 98L300 98" stroke="#1C3374" stroke-width="2" stroke-linecap="square"/>
<line x1="41" y1="98" x2="187" y2="98" stroke="#0B1230" stroke-opacity="0.7" stroke-width="2" stroke-linecap="square"/>
<circle cx="187" cy="98" r="4" fill="#1C3374"/>
<path d="M45.3 116.36V117H40.39V116.49L43.3 113.64C43.6667 113.28 43.9133 112.97 44.04 112.71C44.1733 112.443 44.24 112.177 44.24 111.91C44.24 111.497 44.0967 111.177 43.81 110.95C43.53 110.717 43.1267 110.6 42.6 110.6C41.78 110.6 41.1433 110.86 40.69 111.38L40.18 110.94C40.4533 110.62 40.8 110.373 41.22 110.2C41.6467 110.027 42.1267 109.94 42.66 109.94C43.3733 109.94 43.9367 110.11 44.35 110.45C44.77 110.783 44.98 111.243 44.98 111.83C44.98 112.19 44.9 112.537 44.74 112.87C44.58 113.203 44.2767 113.587 43.83 114.02L41.45 116.36H45.3ZM46.7436 112.79C46.5969 112.79 46.4703 112.737 46.3636 112.63C46.2636 112.523 46.2136 112.393 46.2136 112.24C46.2136 112.087 46.2636 111.96 46.3636 111.86C46.4703 111.753 46.5969 111.7 46.7436 111.7C46.8903 111.7 47.0169 111.753 47.1236 111.86C47.2303 111.96 47.2836 112.087 47.2836 112.24C47.2836 112.393 47.2303 112.523 47.1236 112.63C47.0169 112.737 46.8903 112.79 46.7436 112.79ZM46.7436 117.05C46.5969 117.05 46.4703 116.997 46.3636 116.89C46.2636 116.783 46.2136 116.653 46.2136 116.5C46.2136 116.347 46.2636 116.22 46.3636 116.12C46.4703 116.013 46.5969 115.96 46.7436 115.96C46.8903 115.96 47.0169 116.013 47.1236 116.12C47.2303 116.22 47.2836 116.347 47.2836 116.5C47.2836 116.653 47.2303 116.783 47.1236 116.89C47.0169 116.997 46.8903 117.05 46.7436 117.05ZM50.7027 113C51.4361 113.04 51.9927 113.24 52.3727 113.6C52.7594 113.953 52.9527 114.417 52.9527 114.99C52.9527 115.39 52.8561 115.747 52.6627 116.06C52.4694 116.367 52.1827 116.61 51.8027 116.79C51.4227 116.97 50.9594 117.06 50.4127 117.06C49.9061 117.06 49.4261 116.98 48.9727 116.82C48.5261 116.653 48.1661 116.433 47.8927 116.16L48.2427 115.59C48.4761 115.83 48.7861 116.027 49.1727 116.18C49.5594 116.327 49.9727 116.4 50.4127 116.4C50.9861 116.4 51.4294 116.277 51.7427 116.03C52.0561 115.777 52.2127 115.43 52.2127 114.99C52.2127 114.557 52.0561 114.217 51.7427 113.97C51.4294 113.723 50.9561 113.6 50.3227 113.6H49.8227V113.07L51.7627 110.64H48.1827V110H52.6827V110.51L50.7027 113ZM56.7573 117.06C56.2173 117.06 55.7339 116.917 55.3073 116.63C54.8873 116.343 54.5573 115.933 54.3173 115.4C54.0839 114.86 53.9673 114.227 53.9673 113.5C53.9673 112.773 54.0839 112.143 54.3173 111.61C54.5573 111.07 54.8873 110.657 55.3073 110.37C55.7339 110.083 56.2173 109.94 56.7573 109.94C57.2973 109.94 57.7773 110.083 58.1973 110.37C58.6239 110.657 58.9573 111.07 59.1973 111.61C59.4373 112.143 59.5573 112.773 59.5573 113.5C59.5573 114.227 59.4373 114.86 59.1973 115.4C58.9573 115.933 58.6239 116.343 58.1973 116.63C57.7773 116.917 57.2973 117.06 56.7573 117.06ZM56.7573 116.4C57.1639 116.4 57.5206 116.287 57.8273 116.06C58.1406 115.833 58.3839 115.503 58.5573 115.07C58.7306 114.637 58.8173 114.113 58.8173 113.5C58.8173 112.887 58.7306 112.363 58.5573 111.93C58.3839 111.497 58.1406 111.167 57.8273 110.94C57.5206 110.713 57.1639 110.6 56.7573 110.6C56.3506 110.6 55.9906 110.713 55.6773 110.94C55.3706 111.167 55.1306 111.497 54.9573 111.93C54.7839 112.363 54.6973 112.887 54.6973 113.5C54.6973 114.113 54.7839 114.637 54.9573 115.07C55.1306 115.503 55.3706 115.833 55.6773 116.06C55.9906 116.287 56.3506 116.4 56.7573 116.4Z" fill="#1C3374"/>
<path d="M287.974 115.16H286.574V117H285.854V115.16H281.904V114.64L285.614 110H286.414L282.834 114.52H285.874V112.9H286.574V114.52H287.974V115.16ZM289.234 112.79C289.087 112.79 288.96 112.737 288.854 112.63C288.754 112.523 288.704 112.393 288.704 112.24C288.704 112.087 288.754 111.96 288.854 111.86C288.96 111.753 289.087 111.7 289.234 111.7C289.38 111.7 289.507 111.753 289.614 111.86C289.72 111.96 289.774 112.087 289.774 112.24C289.774 112.393 289.72 112.523 289.614 112.63C289.507 112.737 289.38 112.79 289.234 112.79ZM289.234 117.05C289.087 117.05 288.96 116.997 288.854 116.89C288.754 116.783 288.704 116.653 288.704 116.5C288.704 116.347 288.754 116.22 288.854 116.12C288.96 116.013 289.087 115.96 289.234 115.96C289.38 115.96 289.507 116.013 289.614 116.12C289.72 116.22 289.774 116.347 289.774 116.5C289.774 116.653 289.72 116.783 289.614 116.89C289.507 116.997 289.38 117.05 289.234 117.05ZM292.753 110V117H292.033V110.64H290.383V110H292.753ZM297.326 112.81C297.786 112.81 298.193 112.897 298.546 113.07C298.906 113.243 299.186 113.49 299.386 113.81C299.586 114.123 299.686 114.49 299.686 114.91C299.686 115.337 299.583 115.713 299.376 116.04C299.17 116.367 298.883 116.62 298.516 116.8C298.156 116.973 297.75 117.06 297.296 117.06C296.37 117.06 295.66 116.757 295.166 116.15C294.673 115.537 294.426 114.673 294.426 113.56C294.426 112.78 294.56 112.12 294.826 111.58C295.093 111.04 295.466 110.633 295.946 110.36C296.426 110.08 296.986 109.94 297.626 109.94C298.32 109.94 298.873 110.067 299.286 110.32L298.996 110.9C298.663 110.68 298.21 110.57 297.636 110.57C296.863 110.57 296.256 110.817 295.816 111.31C295.376 111.797 295.156 112.507 295.156 113.44C295.156 113.607 295.166 113.797 295.186 114.01C295.36 113.63 295.636 113.337 296.016 113.13C296.396 112.917 296.833 112.81 297.326 112.81ZM297.266 116.45C297.773 116.45 298.183 116.313 298.496 116.04C298.816 115.76 298.976 115.39 298.976 114.93C298.976 114.47 298.816 114.103 298.496 113.83C298.183 113.557 297.756 113.42 297.216 113.42C296.863 113.42 296.55 113.487 296.276 113.62C296.01 113.753 295.8 113.937 295.646 114.17C295.493 114.403 295.416 114.663 295.416 114.95C295.416 115.217 295.486 115.463 295.626 115.69C295.773 115.917 295.986 116.1 296.266 116.24C296.546 116.38 296.88 116.45 297.266 116.45Z" fill="#1C3374"/>
<path d="M266.323 70.7082C266.101 70.193 265.78 69.726 265.379 69.3336C264.977 68.94 264.504 68.6272 263.984 68.4122C263.445 68.1884 262.867 68.0739 262.284 68.0752C261.466 68.0752 260.667 68.2993 259.973 68.7227C259.807 68.8239 259.649 68.9352 259.5 69.0564C259.351 68.9352 259.193 68.8239 259.027 68.7227C258.333 68.2993 257.534 68.0752 256.716 68.0752C256.127 68.0752 255.555 68.1881 255.016 68.4122C254.495 68.628 254.025 68.9385 253.621 69.3336C253.22 69.7256 252.899 70.1926 252.677 70.7082C252.446 71.2444 252.328 71.8139 252.328 72.3999C252.328 72.9527 252.441 73.5288 252.665 74.1149C252.853 74.6046 253.122 75.1126 253.465 75.6256C254.01 76.4374 254.759 77.2841 255.688 78.1424C257.229 79.5651 258.755 80.548 258.819 80.5878L259.213 80.8401C259.387 80.9514 259.611 80.9514 259.786 80.8401L260.179 80.5878C260.244 80.5463 261.768 79.5651 263.31 78.1424C264.24 77.2841 264.988 76.4374 265.533 75.6256C265.877 75.1126 266.147 74.6046 266.333 74.1149C266.557 73.5288 266.67 72.9527 266.67 72.3999C266.672 71.8139 266.554 71.2444 266.323 70.7082ZM259.5 79.527C259.5 79.527 253.59 75.7401 253.59 72.3999C253.59 70.7082 254.989 69.3369 256.716 69.3369C257.929 69.3369 258.982 70.0143 259.5 71.0037C260.018 70.0143 261.071 69.3369 262.284 69.3369C264.011 69.3369 265.41 70.7082 265.41 72.3999C265.41 75.7401 259.5 79.527 259.5 79.527Z" fill="#1C3374"/>
<path d="M291.5 68.125V76.625M291.5 68.125L288.667 70.9583M291.5 68.125L294.334 70.9583M284.417 78.0417L284.857 79.8019C284.933 80.1084 285.11 80.3804 285.359 80.5749C285.608 80.7693 285.915 80.875 286.231 80.875H296.77C297.086 80.875 297.392 80.7693 297.641 80.5749C297.89 80.3804 298.067 80.1084 298.144 79.8019L298.584 78.0417" stroke="#1C3374" stroke-width="1.16667" stroke-linecap="round" stroke-linejoin="round"/>
<path d="M41.596 70.2H42.632V79.104H48.12V80H41.596V70.2ZM49.6301 72.636H50.6241V80H49.6301V72.636ZM50.1341 71.026C49.9288 71.026 49.7561 70.956 49.6161 70.816C49.4761 70.676 49.4061 70.508 49.4061 70.312C49.4061 70.1253 49.4761 69.962 49.6161 69.822C49.7561 69.682 49.9288 69.612 50.1341 69.612C50.3395 69.612 50.5121 69.682 50.6521 69.822C50.7921 69.9527 50.8621 70.1113 50.8621 70.298C50.8621 70.5033 50.7921 70.676 50.6521 70.816C50.5121 70.956 50.3395 71.026 50.1341 71.026ZM55.8259 70.382C55.3966 70.382 55.0699 70.4987 54.8459 70.732C54.6312 70.9653 54.5239 71.3107 54.5239 71.768V72.636H56.7919V73.476H54.5519V80H53.5579V73.476H52.2419V72.636H53.5579V71.726C53.5579 71.054 53.7492 70.522 54.1319 70.13C54.5239 69.738 55.0746 69.542 55.7839 69.542C56.0639 69.542 56.3346 69.584 56.5959 69.668C56.8572 69.7427 57.0766 69.8547 57.2539 70.004L56.9179 70.746C56.6286 70.5033 56.2646 70.382 55.8259 70.382ZM64.423 76.626H58.263C58.319 77.3913 58.613 78.012 59.145 78.488C59.677 78.9547 60.349 79.188 61.161 79.188C61.6183 79.188 62.0383 79.1087 62.421 78.95C62.8037 78.782 63.135 78.5393 63.415 78.222L63.975 78.866C63.6483 79.258 63.2377 79.5567 62.743 79.762C62.2577 79.9673 61.721 80.07 61.133 80.07C60.377 80.07 59.705 79.9113 59.117 79.594C58.5383 79.2673 58.0857 78.8193 57.759 78.25C57.4323 77.6807 57.269 77.0367 57.269 76.318C57.269 75.5993 57.423 74.9553 57.731 74.386C58.0483 73.8167 58.4777 73.3733 59.019 73.056C59.5697 72.7387 60.1857 72.58 60.867 72.58C61.5483 72.58 62.1597 72.7387 62.701 73.056C63.2423 73.3733 63.667 73.8167 63.975 74.386C64.283 74.946 64.437 75.59 64.437 76.318L64.423 76.626ZM60.867 73.434C60.1577 73.434 59.5603 73.6627 59.075 74.12C58.599 74.568 58.3283 75.156 58.263 75.884H63.485C63.4197 75.156 63.1443 74.568 62.659 74.12C62.183 73.6627 61.5857 73.434 60.867 73.434ZM70.3382 79.552C70.1516 79.72 69.9182 79.8507 69.6382 79.944C69.3676 80.028 69.0829 80.07 68.7842 80.07C68.0936 80.07 67.5616 79.8833 67.1882 79.51C66.8149 79.1367 66.6282 78.6093 66.6282 77.928V73.476H65.3122V72.636H66.6282V71.026H67.6222V72.636H69.8622V73.476H67.6222V77.872C67.6222 78.3107 67.7296 78.6467 67.9442 78.88C68.1682 79.104 68.4856 79.216 68.8962 79.216C69.1016 79.216 69.2976 79.1833 69.4842 79.118C69.6802 79.0527 69.8482 78.9593 69.9882 78.838L70.3382 79.552ZM74.898 80.07C74.1886 80.07 73.5493 79.9113 72.98 79.594C72.4106 79.2673 71.9626 78.8193 71.636 78.25C71.3093 77.6807 71.146 77.0367 71.146 76.318C71.146 75.5993 71.3093 74.9553 71.636 74.386C71.9626 73.8167 72.4106 73.3733 72.98 73.056C73.5493 72.7387 74.1886 72.58 74.898 72.58C75.6073 72.58 76.2466 72.7387 76.816 73.056C77.3853 73.3733 77.8286 73.8167 78.146 74.386C78.4726 74.9553 78.636 75.5993 78.636 76.318C78.636 77.0367 78.4726 77.6807 78.146 78.25C77.8286 78.8193 77.3853 79.2673 76.816 79.594C76.2466 79.9113 75.6073 80.07 74.898 80.07ZM74.898 79.188C75.4206 79.188 75.8873 79.0713 76.298 78.838C76.718 78.5953 77.0446 78.2547 77.278 77.816C77.5113 77.3773 77.628 76.878 77.628 76.318C77.628 75.758 77.5113 75.2587 77.278 74.82C77.0446 74.3813 76.718 74.0453 76.298 73.812C75.8873 73.5693 75.4206 73.448 74.898 73.448C74.3753 73.448 73.904 73.5693 73.484 73.812C73.0733 74.0453 72.7466 74.3813 72.504 74.82C72.2706 75.2587 72.154 75.758 72.154 76.318C72.154 76.878 72.2706 77.3773 72.504 77.816C72.7466 78.2547 73.0733 78.5953 73.484 78.838C73.904 79.0713 74.3753 79.188 74.898 79.188ZM87.3013 72.636V80H86.3493V78.656C86.088 79.104 85.7286 79.454 85.2713 79.706C84.814 79.9487 84.2913 80.07 83.7033 80.07C82.742 80.07 81.9813 79.804 81.4213 79.272C80.8706 78.7307 80.5953 77.942 80.5953 76.906V72.636H81.5893V76.808C81.5893 77.5827 81.7806 78.1707 82.1633 78.572C82.546 78.9733 83.092 79.174 83.8013 79.174C84.576 79.174 85.1873 78.9407 85.6353 78.474C86.0833 77.998 86.3073 77.34 86.3073 76.5V72.636H87.3013ZM91.0372 74.078C91.2706 73.5833 91.6159 73.21 92.0732 72.958C92.5399 72.706 93.1139 72.58 93.7952 72.58V73.546L93.5572 73.532C92.7826 73.532 92.1759 73.77 91.7372 74.246C91.2986 74.722 91.0792 75.3893 91.0792 76.248V80H90.0852V72.636H91.0372V74.078Z" fill="#1C3374" fill-opacity="0.48"/>
<path d="M52.452 54.886H43.872L42.024 59H40.33L47.37 43.6H48.976L56.016 59H54.3L52.452 54.886ZM51.858 53.566L48.162 45.294L44.466 53.566H51.858ZM68.0961 47.428V59H66.5341V48.814H60.9901L60.8361 51.674C60.7187 54.0793 60.4401 55.9273 60.0001 57.218C59.5601 58.5087 58.7754 59.154 57.6461 59.154C57.3381 59.154 56.9641 59.0953 56.5241 58.978L56.6341 57.636C56.8981 57.6947 57.0814 57.724 57.1841 57.724C57.7854 57.724 58.2401 57.4453 58.5481 56.888C58.8561 56.3307 59.0614 55.6413 59.1641 54.82C59.2667 53.9987 59.3547 52.9133 59.4281 51.564L59.6261 47.428H68.0961ZM80.6765 48.814H76.2985V59H74.7365V48.814H70.3585V47.428H80.6765V48.814ZM86.9169 47.34C88.4276 47.34 89.5862 47.7213 90.3929 48.484C91.1996 49.232 91.6029 50.3467 91.6029 51.828V59H90.1069V57.196C89.7549 57.7973 89.2342 58.2667 88.5449 58.604C87.8702 58.9413 87.0636 59.11 86.1249 59.11C84.8342 59.11 83.8076 58.802 83.0449 58.186C82.2822 57.57 81.9009 56.756 81.9009 55.744C81.9009 54.7613 82.2529 53.9693 82.9569 53.368C83.6756 52.7667 84.8122 52.466 86.3669 52.466H90.0409V51.762C90.0409 50.7647 89.7622 50.0093 89.2049 49.496C88.6476 48.968 87.8336 48.704 86.7629 48.704C86.0296 48.704 85.3256 48.8287 84.6509 49.078C83.9762 49.3127 83.3969 49.6427 82.9129 50.068L82.2089 48.902C82.7956 48.4033 83.4996 48.022 84.3209 47.758C85.1422 47.4793 86.0076 47.34 86.9169 47.34ZM86.3669 57.878C87.2469 57.878 88.0022 57.68 88.6329 57.284C89.2636 56.8733 89.7329 56.2867 90.0409 55.524V53.632H86.4109C84.4309 53.632 83.4409 54.3213 83.4409 55.7C83.4409 56.3747 83.6976 56.91 84.2109 57.306C84.7242 57.6873 85.4429 57.878 86.3669 57.878ZM95.7611 47.428H97.3231V56.624L105.045 47.428H106.431V59H104.869V49.804L97.1691 59H95.7611V47.428ZM101.019 45.756C100.022 45.756 99.2297 45.5067 98.6431 45.008C98.0564 44.5093 97.7557 43.8053 97.7411 42.896H98.8631C98.8777 43.468 99.0831 43.93 99.4791 44.282C99.8751 44.6193 100.388 44.788 101.019 44.788C101.65 44.788 102.163 44.6193 102.559 44.282C102.97 43.93 103.182 43.468 103.197 42.896H104.319C104.304 43.8053 103.996 44.5093 103.395 45.008C102.808 45.5067 102.016 45.756 101.019 45.756Z" fill="#1C3374"/>
<path d="M128.562 165.25C128.442 165.25 128.323 165.218 128.218 165.157L115.156 157.595C115.051 157.534 114.965 157.448 114.905 157.343C114.845 157.239 114.813 157.12 114.813 157C114.813 156.88 114.845 156.761 114.905 156.657C114.965 156.552 115.051 156.466 115.156 156.405L128.218 148.843C128.323 148.782 128.441 148.75 128.562 148.75C128.683 148.75 128.801 148.782 128.906 148.842C129.01 148.902 129.097 148.989 129.158 149.094C129.218 149.198 129.25 149.317 129.25 149.438V164.562C129.25 164.745 129.178 164.92 129.049 165.049C128.92 165.178 128.745 165.25 128.562 165.25ZM111.375 148.75H112.75V165.25H111.375V148.75Z" fill="#1C3374"/>
<path d="M212.438 147.75C212.558 147.75 212.677 147.782 212.782 147.843L225.844 155.405C225.949 155.466 226.035 155.552 226.095 155.657C226.155 155.761 226.187 155.88 226.187 156C226.187 156.12 226.155 156.239 226.095 156.343C226.035 156.448 225.949 156.534 225.844 156.595L212.782 164.157C212.677 164.218 212.559 164.25 212.438 164.25C212.317 164.25 212.199 164.218 212.094 164.158C211.99 164.098 211.903 164.011 211.842 163.906C211.782 163.802 211.75 163.683 211.75 163.562L211.75 148.437C211.75 148.255 211.822 148.08 211.951 147.951C212.08 147.822 212.255 147.75 212.438 147.75ZM229.625 164.25L228.25 164.25L228.25 147.75L229.625 147.75L229.625 164.25Z" fill="#1C3374"/>
<path d="M63.2129 160.412C63.3596 160.56 63.4419 160.76 63.4419 160.969C63.4419 161.177 63.3596 161.377 63.2129 161.525L60.8691 163.869C60.7198 164.014 60.5202 164.094 60.3125 164.094C60.1048 164.094 59.9052 164.014 59.7559 163.869C59.6092 163.721 59.5269 163.521 59.5269 163.313C59.5269 163.104 59.6092 162.904 59.7559 162.756L60.7715 161.75H59.6191C58.4996 161.748 57.3967 161.48 56.4016 160.967C55.4064 160.454 54.5477 159.711 53.8965 158.801L49.8242 153.107C49.3189 152.4 48.6523 151.822 47.8797 151.423C47.107 151.024 46.2505 150.815 45.3809 150.813H43.125C42.9178 150.813 42.7191 150.73 42.5726 150.584C42.4261 150.437 42.3438 150.238 42.3438 150.031C42.3438 149.824 42.4261 149.625 42.5726 149.479C42.7191 149.332 42.9178 149.25 43.125 149.25H45.3809C46.5004 149.252 47.6033 149.52 48.5984 150.033C49.5936 150.546 50.4523 151.289 51.1035 152.199L55.1758 157.893C55.6811 158.6 56.3477 159.178 57.1203 159.577C57.893 159.976 58.7495 160.185 59.6191 160.188H60.7715L59.7559 159.182C59.6313 159.03 59.5676 158.837 59.5772 158.641C59.5869 158.445 59.6691 158.259 59.808 158.12C59.9468 157.982 60.1324 157.899 60.3285 157.89C60.5246 157.88 60.7173 157.944 60.8691 158.068L63.2129 160.412ZM53.9648 153.449C54.0487 153.509 54.1436 153.552 54.2441 153.575C54.3446 153.598 54.4487 153.602 54.5504 153.584C54.6521 153.567 54.7493 153.53 54.8365 153.475C54.9238 153.42 54.9992 153.348 55.0586 153.264L55.1758 153.107C55.6811 152.4 56.3477 151.822 57.1203 151.423C57.893 151.024 58.7495 150.815 59.6191 150.813H60.7715L59.7559 151.818C59.6092 151.966 59.5269 152.167 59.5269 152.375C59.5269 152.583 59.6092 152.784 59.7559 152.932C59.9052 153.076 60.1048 153.157 60.3125 153.157C60.5202 153.157 60.7198 153.076 60.8691 152.932L63.2129 150.588C63.3596 150.44 63.4419 150.24 63.4419 150.031C63.4419 149.823 63.3596 149.623 63.2129 149.475L60.8691 147.131C60.7173 147.006 60.5246 146.943 60.3285 146.952C60.1324 146.962 59.9468 147.044 59.808 147.183C59.6691 147.322 59.5869 147.507 59.5772 147.704C59.5676 147.9 59.6313 148.092 59.7559 148.244L60.7715 149.25H59.6191C58.4996 149.252 57.3967 149.52 56.4016 150.033C55.4064 150.546 54.5477 151.289 53.8965 152.199L53.7891 152.355C53.7285 152.439 53.685 152.533 53.6611 152.633C53.6372 152.733 53.6332 152.837 53.6496 152.939C53.6659 153.041 53.7022 153.138 53.7563 153.226C53.8104 153.313 53.8813 153.389 53.9648 153.449ZM51.0352 157.551C50.9513 157.491 50.8564 157.448 50.7559 157.425C50.6554 157.402 50.5513 157.398 50.4496 157.416C50.3479 157.433 50.2507 157.47 50.1635 157.525C50.0762 157.58 50.0008 157.652 49.9414 157.736L49.8242 157.893C49.3189 158.6 48.6523 159.178 47.8797 159.577C47.107 159.976 46.2505 160.185 45.3809 160.188H43.125C42.9178 160.188 42.7191 160.27 42.5726 160.416C42.4261 160.563 42.3438 160.762 42.3438 160.969C42.3438 161.176 42.4261 161.375 42.5726 161.521C42.7191 161.668 42.9178 161.75 43.125 161.75H45.3809C46.5004 161.748 47.6033 161.48 48.5984 160.967C49.5936 160.454 50.4523 159.711 51.1035 158.801L51.2109 158.645C51.2715 158.561 51.315 158.467 51.3389 158.367C51.3628 158.267 51.3668 158.163 51.3504 158.061C51.3341 157.959 51.2978 157.862 51.2437 157.774C51.1896 157.687 51.1187 157.611 51.0352 157.551Z" fill="#1C3374"/>
<path d="M295.145 152.185C295.972 153.051 296.532 154.136 296.76 155.312C296.988 156.487 296.873 157.703 296.43 158.815C295.986 159.927 295.233 160.889 294.259 161.585C293.285 162.281 292.131 162.683 290.936 162.743L290.625 162.751L285.479 162.749L287.273 164.544C287.402 164.674 287.482 164.844 287.499 165.026C287.515 165.208 287.468 165.391 287.364 165.541L287.273 165.649C287.144 165.778 286.973 165.858 286.791 165.875C286.609 165.891 286.427 165.844 286.276 165.74L286.168 165.649L283.04 162.521C282.911 162.391 282.831 162.221 282.815 162.039C282.799 161.856 282.847 161.674 282.951 161.524L283.04 161.416L286.168 158.288C286.306 158.15 286.491 158.068 286.686 158.059C286.881 158.05 287.072 158.114 287.222 158.239C287.372 158.364 287.47 158.541 287.496 158.735C287.522 158.928 287.475 159.125 287.364 159.285L287.273 159.394L285.479 161.186H290.625C291.82 161.187 292.97 160.73 293.84 159.91C294.71 159.09 295.234 157.969 295.304 156.776L295.312 156.501C295.314 155.267 294.827 154.082 293.959 153.205C293.816 153.061 293.735 152.867 293.733 152.664C293.731 152.461 293.808 152.265 293.948 152.118C294.088 151.971 294.279 151.884 294.482 151.876C294.684 151.867 294.882 151.938 295.034 152.072L295.146 152.185H295.145ZM288.725 147.261L288.834 147.351L291.961 150.479L292.051 150.588C292.141 150.719 292.189 150.873 292.189 151.032C292.189 151.19 292.141 151.345 292.051 151.476L291.961 151.585L288.834 154.711L288.725 154.802C288.594 154.892 288.439 154.94 288.281 154.94C288.122 154.94 287.968 154.892 287.837 154.802L287.728 154.711L287.639 154.602C287.549 154.472 287.5 154.317 287.5 154.158C287.5 154 287.549 153.845 287.639 153.715L287.728 153.605L289.521 151.813H284.375C283.179 151.813 282.028 152.27 281.159 153.09C280.289 153.91 279.765 155.032 279.695 156.226L279.687 156.501C279.687 157.782 280.201 158.941 281.032 159.788C281.164 159.938 281.233 160.133 281.225 160.333C281.218 160.533 281.134 160.722 280.991 160.861C280.848 161.001 280.657 161.081 280.457 161.084C280.257 161.087 280.064 161.014 279.917 160.879C279.073 160.019 278.496 158.934 278.254 157.754C278.012 156.574 278.117 155.35 278.555 154.228C278.993 153.106 279.745 152.134 280.722 151.43C281.7 150.726 282.859 150.319 284.062 150.258L284.375 150.251L289.521 150.249L287.728 148.457L287.639 148.347C287.536 148.197 287.489 148.015 287.505 147.834C287.522 147.653 287.602 147.483 287.731 147.354C287.86 147.225 288.03 147.145 288.211 147.128C288.393 147.111 288.574 147.159 288.725 147.261Z" fill="#1C3374"/>
<path d="M194 156.5C194 162.733 191.524 168.71 187.117 173.117C182.71 177.524 176.733 180 170.5 180C164.267 180 158.29 177.524 153.883 173.117C149.476 168.71 147 162.733 147 156.5C147 150.267 149.476 144.29 153.883 139.883C158.29 135.476 164.267 133 170.5 133C176.733 133 182.71 135.476 187.117 139.883C191.524 144.29 194 150.267 194 156.5ZM166.946 147.961C166.726 147.804 166.468 147.711 166.199 147.692C165.93 147.673 165.661 147.728 165.421 147.851C165.181 147.975 164.98 148.162 164.84 148.392C164.7 148.622 164.625 148.887 164.625 149.156V163.844C164.625 164.113 164.7 164.378 164.84 164.608C164.98 164.838 165.181 165.025 165.421 165.149C165.661 165.272 165.93 165.327 166.199 165.308C166.468 165.289 166.726 165.196 166.946 165.039L177.227 157.696C177.417 157.56 177.572 157.38 177.68 157.172C177.787 156.964 177.842 156.734 177.842 156.5C177.842 156.266 177.787 156.036 177.68 155.828C177.572 155.62 177.417 155.44 177.227 155.304L166.946 147.961Z" fill="#1C3374"/>
<rect x="1" y="1" width="338" height="218" stroke="white" stroke-width="2"/>
</svg>
