<svg width="33" height="32" viewBox="0 0 33 32" fill="none" xmlns="http://www.w3.org/2000/svg"><path d="M11.9859 20.7577L14.8568 17.7973L18.1224 20.7577H23.7207L14.8209 12.1938L5.99285 20.7577H11.9859Z" fill="white"/><path d="M20.204 7.01322L15.9694 11.2423L18.7686 14.0617L20.204 12.652L28.0631 20.3348C26.2688 25.022 21.6753 28.37 16.2565 28.37C9.29456 28.37 3.66041 22.837 3.66041 16C3.69629 9.163 9.33045 3.62996 16.2924 3.62996C22.4648 3.62996 27.6325 8.03524 28.6732 13.7797L32.4771 17.7269C32.5489 17.163 32.5848 16.5639 32.5848 16C32.5848 11.7357 30.8981 7.71806 27.8119 4.68722C24.7257 1.65639 20.6346 0 16.2924 0C11.9143 0 7.85911 1.65639 4.77288 4.68722C1.68666 7.71806 0 11.7004 0 16C0 20.2996 1.68666 24.2819 4.77288 27.3128C7.85911 30.3436 11.9502 32 16.2924 32C20.6346 32 24.7257 30.3436 27.8119 27.3128C29.7139 25.4449 31.0776 23.2247 31.8312 20.793C31.9747 20.37 32.0824 19.9119 32.19 19.489L28.8885 16.0705L20.204 7.01322Z" fill="white"/></svg>